<?xml version="1.0" encoding="UTF-8" standalone="no"?>
<svg width="30px" height="19px" viewBox="0 0 30 19" version="1.1" xmlns="http://www.w3.org/2000/svg" xmlns:xlink="http://www.w3.org/1999/xlink" xmlns:sketch="http://www.bohemiancoding.com/sketch/ns">
    <!-- Generator: Sketch 3.1.1 (8761) - http://www.bohemiancoding.com/sketch -->
    <title>icon_6489 9</title>
    <desc>Created with Sketch.</desc>
    <defs></defs>
    <g id="Placeholder" stroke="none" stroke-width="1" fill="none" fill-rule="evenodd" sketch:type="MSPage">
        <g id="2Registration" sketch:type="MSArtboardGroup" transform="translate(-549.000000, -539.000000)" fill="#979797">
            <g id="icon_6489-9" sketch:type="MSLayerGroup" transform="translate(564.000000, 548.926169) rotate(-270.000000) translate(-564.000000, -548.926169) translate(555.000000, 534.426169)">
                <path d="M16.7312369,11.7211112 L16.2321065,11.284586 L16.1684724,11.2256434 C16.0556922,11.1211808 15.93581,11.018469 15.813087,10.917508 L4.09190329,0.657414017 C3.18625294,-0.241314422 1.7425531,-0.215052876 0.867583494,0.714897621 L0.555094351,1.04754386 C-0.31987525,1.97807795 -0.294307957,3.46097987 0.611342397,4.35941652 L8.80196693,14.4581479 L1.50790216,24.9607234 C0.665033713,25.9221878 0.74059927,27.4030471 1.67664629,28.2688027 L2.01100968,28.5781054 C2.94677262,29.443861 4.3884839,29.3656599 5.23106826,28.4047792 L16.23722,16.9077664 C16.2835252,16.8663316 16.3326712,16.827231 16.3744311,16.7825864 L16.808791,16.320675 C18.0238056,15.0283152 17.9885796,12.9688264 16.7312369,11.7211112 L16.7312369,11.7211112 Z" id="Shape" sketch:type="MSShapeGroup"></path>
            </g>
        </g>
    </g>
</svg>