<?xml version="1.0" encoding="utf-8"?>
<!-- Generator: Adobe Illustrator 18.0.0, SVG Export Plug-In . SVG Version: 6.00 Build 0)  -->
<!DOCTYPE svg PUBLIC "-//W3C//DTD SVG 1.1//EN" "http://www.w3.org/Graphics/SVG/1.1/DTD/svg11.dtd">
<svg version="1.1" id="Layer_1" xmlns:sketch="http://www.bohemiancoding.com/sketch/ns"
	 xmlns="http://www.w3.org/2000/svg" xmlns:xlink="http://www.w3.org/1999/xlink" x="0px" y="0px" viewBox="0 0 283 213"
	 style="enable-background:new 0 0 283 213;" xml:space="preserve">
<g>
	<polyline style="fill:#4AA9DB;" points="140.5,22 140.5,191 143.5,191 143.5,22 	"/>
	<path style="fill:#4AA9DB;" d="M142,2v1.5c2.5,0,4.7,1,6.4,2.6c1.6,1.6,2.6,3.9,2.6,6.4c0,2.5-1,4.7-2.6,6.4
		c-1.6,1.6-3.9,2.6-6.4,2.6c-2.5,0-4.7-1-6.4-2.6c-1.6-1.6-2.6-3.9-2.6-6.4c0-2.5,1-4.7,2.6-6.4c1.6-1.6,3.9-2.6,6.4-2.6V2V0.5
		c-6.6,0-12,5.4-12,12c0,6.6,5.4,12,12,12c6.6,0,12-5.4,12-12c0-6.6-5.4-12-12-12V2z"/>
	<path style="fill:#4AA9DB;" d="M142,190v1.5c2.5,0,4.7,1,6.4,2.6c1.6,1.6,2.6,3.9,2.6,6.4c0,2.5-1,4.7-2.6,6.4
		c-1.6,1.6-3.9,2.6-6.4,2.6c-2.5,0-4.7-1-6.4-2.6c-1.6-1.6-2.6-3.9-2.6-6.4c0-2.5,1-4.7,2.6-6.4c1.6-1.6,3.9-2.6,6.4-2.6V190v-1.5
		c-6.6,0-12,5.4-12,12c0,6.6,5.4,12,12,12c6.6,0,12-5.4,12-12c0-6.6-5.4-12-12-12V190z"/>
	<polygon style="fill:#979797;" points="55.3,78.4 55,79.4 86.6,90.9 84.7,96.2 54,85.1 56.3,78.8 55.3,78.4 55,79.4 55.3,78.4 
		54.4,78.1 51.4,86.3 85.9,98.8 89.2,89.7 54.7,77.2 54.4,78.1 	"/>
	<polygon style="fill:#979797;" points="51,90.5 50.6,91.4 82.2,102.9 80.3,108.3 49.6,97.1 51.9,90.8 51,90.5 50.6,91.4 51,90.5 
		50,90.2 47,98.3 81.5,110.9 84.8,101.7 50.4,89.2 50,90.2 	"/>
	<path style="fill:#979797;" d="M50.2,103.9l-0.3,0.9c0.6,0.2,1,0.8,1,1.5c0,0.2,0,0.4-0.1,0.5c-0.2,0.6-0.8,1-1.5,1
		c-0.2,0-0.4,0-0.5-0.1c-0.6-0.2-1-0.8-1-1.5c0-0.2,0-0.4,0.1-0.5c0.2-0.6,0.8-1,1.5-1c0.2,0,0.4,0,0.5,0.1L50.2,103.9l0.3-0.9
		c-0.4-0.1-0.8-0.2-1.2-0.2c-1.5,0-2.8,0.9-3.4,2.3c-0.1,0.4-0.2,0.8-0.2,1.2c0,1.5,0.9,2.8,2.3,3.4c0.4,0.1,0.8,0.2,1.2,0.2
		c1.5,0,2.8-0.9,3.4-2.3c0.1-0.4,0.2-0.8,0.2-1.2c0-1.5-0.9-2.8-2.3-3.4L50.2,103.9z"/>
	<path style="fill:#979797;" d="M58.6,106.9l-0.3,0.9c0.6,0.2,1,0.8,1,1.5c0,0.2,0,0.4-0.1,0.5c-0.2,0.6-0.8,1-1.5,1
		c-0.2,0-0.4,0-0.5-0.1c-0.6-0.2-1-0.8-1-1.5c0-0.2,0-0.4,0.1-0.5c0.2-0.6,0.8-1,1.5-1c0.2,0,0.4,0,0.5,0.1L58.6,106.9L59,106
		c-0.4-0.1-0.8-0.2-1.2-0.2c-1.5,0-2.8,0.9-3.4,2.3c-0.1,0.4-0.2,0.8-0.2,1.2c0,1.5,0.9,2.8,2.3,3.4c0.4,0.1,0.8,0.2,1.2,0.2
		c1.5,0,2.8-0.9,3.4-2.3c0.1-0.4,0.2-0.8,0.2-1.2c0-1.5-0.9-2.8-2.3-3.4L58.6,106.9z"/>
	<path style="fill:#979797;" d="M67.1,110l-0.3,0.9c0.6,0.2,1,0.8,1,1.5c0,0.2,0,0.4-0.1,0.5c-0.2,0.6-0.8,1-1.5,1
		c-0.2,0-0.4,0-0.5-0.1c-0.6-0.2-1-0.8-1-1.5c0-0.2,0-0.4,0.1-0.5c0.2-0.6,0.8-1,1.5-1c0.2,0,0.4,0,0.5,0.1L67.1,110l0.3-0.9
		c-0.4-0.1-0.8-0.2-1.2-0.2c-1.5,0-2.8,0.9-3.4,2.3c-0.1,0.4-0.2,0.8-0.2,1.2c0,1.5,0.9,2.8,2.3,3.4c0.4,0.1,0.8,0.2,1.2,0.2
		c1.5,0,2.8-0.9,3.4-2.3c0.1-0.4,0.2-0.8,0.2-1.2c0-1.5-0.9-2.8-2.3-3.4L67.1,110z"/>
	<path style="fill:#979797;" d="M75.5,113.1l-0.3,0.9c0.6,0.2,1,0.8,1,1.5c0,0.2,0,0.4-0.1,0.5c-0.2,0.6-0.8,1-1.5,1
		c-0.2,0-0.4,0-0.5-0.1c-0.6-0.2-1-0.8-1-1.5c0-0.2,0-0.4,0.1-0.5c0.2-0.6,0.8-1,1.5-1c0.2,0,0.4,0,0.5,0.1L75.5,113.1l0.3-0.9
		c-0.4-0.1-0.8-0.2-1.2-0.2c-1.5,0-2.8,0.9-3.4,2.3c-0.1,0.4-0.2,0.8-0.2,1.2c0,1.5,0.9,2.8,2.3,3.4c0.4,0.1,0.8,0.2,1.2,0.2
		c1.5,0,2.8-0.9,3.4-2.3c0.1-0.4,0.2-0.8,0.2-1.2c0-1.5-0.9-2.8-2.3-3.4L75.5,113.1z"/>
	
		<rect x="39.4" y="121.5" transform="matrix(-0.9397 -0.342 0.342 -0.9397 67.1172 262.5175)" style="fill:#979797;" width="34.6" height="7.7"/>
	<path style="fill:#4AA9DB;" d="M98.2,69.3c1.6,0.6,2.4,2.5,1.8,4.1l-29.9,82.3c-0.6,1.6-2.4,2.6-4,2l-36.8-13.4
		c-1.8-0.6-2.5-2.6-2-4.2l29.9-82.3c0.6-1.6,2.4-2.6,4.2-1.9L98.2,69.3z M93.9,83.1c1-2.9-0.5-6.2-3.7-7.3l-26.9-9.8
		c-3.1-1.1-6.5,0.3-7.6,3.2l-22,60.4c-1,2.9,0.7,6.1,3.8,7.2l26.9,9.8c3.2,1.2,6.5-0.2,7.5-3.1L93.9,83.1z M62.8,60.2
		c-0.4,1.1,0.2,2.4,1.5,2.9c1.1,0.4,2.4-0.2,2.9-1.3c0.5-1.3-0.2-2.6-1.3-3C64.6,58.3,63.2,58.9,62.8,60.2z M74.3,62.6
		c-0.8-0.3-1.8,0.1-2.2,1c-0.3,0.8,0.2,1.9,1,2.2l9.5,3.5c0.8,0.3,1.9-0.2,2.2-1c0.3-1-0.2-1.9-1-2.2L74.3,62.6z M53.6,147.6
		c0.8-2.2-0.5-4.7-2.7-5.5c-2.4-0.9-5,0.2-5.8,2.4c-0.8,2.1,0.5,4.7,2.9,5.6C50.2,150.9,52.8,149.7,53.6,147.6z M52.8,147.3
		c-0.6,1.8-2.8,2.6-4.5,2c-1.9-0.7-3-2.7-2.4-4.5c0.6-1.8,2.8-2.6,4.7-1.9C52.3,143.6,53.4,145.6,52.8,147.3z M50.8,148.4l1.3-3.7
		l-4-1.5l-1.3,3.7L50.8,148.4z M51,145.2l-0.8,2.1l-2.4-0.9l0.8-2.1L51,145.2z M51,145.2l-0.8,2.1l-2.4-0.9l0.8-2.1L51,145.2z"/>
</g>
</svg>
