<?xml version="1.0" encoding="utf-8"?>
<!-- Generator: Adobe Illustrator 18.0.0, SVG Export Plug-In . SVG Version: 6.00 Build 0)  -->
<!DOCTYPE svg PUBLIC "-//W3C//DTD SVG 1.1//EN" "http://www.w3.org/Graphics/SVG/1.1/DTD/svg11.dtd">
<svg version="1.1" id="Layer_1" xmlns:sketch="http://www.bohemiancoding.com/sketch/ns"
	 xmlns="http://www.w3.org/2000/svg" xmlns:xlink="http://www.w3.org/1999/xlink" x="0px" y="0px" viewBox="0 0 283 218"
	 style="enable-background:new 0 0 283 218;" xml:space="preserve">
<g>
	<polyline style="fill:#4AA9DB;" points="140.5,23 140.5,192 143.5,192 143.5,23 	"/>
	<path style="fill:#4AA9DB;" d="M142,3v1.5c2.5,0,4.7,1,6.4,2.6c1.6,1.6,2.6,3.9,2.6,6.4c0,2.5-1,4.7-2.6,6.4
		c-1.6,1.6-3.9,2.6-6.4,2.6c-2.5,0-4.7-1-6.4-2.6c-1.6-1.6-2.6-3.9-2.6-6.4c0-2.5,1-4.7,2.6-6.4c1.6-1.6,3.9-2.6,6.4-2.6V3V1.5
		c-6.6,0-12,5.4-12,12c0,6.6,5.4,12,12,12c6.6,0,12-5.4,12-12c0-6.6-5.4-12-12-12V3z"/>
	<path style="fill:#4AA9DB;" d="M142,191v1.5c2.5,0,4.7,1,6.4,2.6c1.6,1.6,2.6,3.9,2.6,6.4c0,2.5-1,4.7-2.6,6.4
		c-1.6,1.6-3.9,2.6-6.4,2.6c-2.5,0-4.7-1-6.4-2.6c-1.6-1.6-2.6-3.9-2.6-6.4c0-2.5,1-4.7,2.6-6.4c1.6-1.6,3.9-2.6,6.4-2.6V191v-1.5
		c-6.6,0-12,5.4-12,12c0,6.6,5.4,12,12,12c6.6,0,12-5.4,12-12c0-6.6-5.4-12-12-12V191z"/>
	<path style="fill:#4AA9DB;" d="M277.1,70.9h-18.3v-4c0-1.6-1.3-2.9-2.9-2.9s-2.9,1.3-2.9,2.9v4h-32.6v-4c0-1.6-1.3-2.9-2.9-2.9
		c-1.6,0-2.9,1.3-2.9,2.9v4h-18.3c-1.6,0-2.9,1.3-2.9,2.9v74.4c0,1.6,1.3,2.9,2.9,2.9h81.1c1.6,0,2.9-1.3,2.9-2.9V73.8
		C280,72.2,278.7,70.9,277.1,70.9z M198.9,76.8h15.4v4c0,1.6,1.3,2.9,2.9,2.9c1.6,0,2.9-1.3,2.9-2.9v-4h32.6v4
		c0,1.6,1.3,2.9,2.9,2.9c1.6,0,2.9-1.3,2.9-2.9v-4h15.4v16.3h-75.2V76.8z M274.1,145.2h-75.2V98.9h75.2V145.2z"/>
	<path style="fill:#4AA9DB;" d="M229.7,136.7c-1.1,0-2-0.9-2-2v-22.2h-3.4c-1.1,0-2-0.9-2-2c0-1.1,0.9-2,2-2h5.4c1.1,0,2,0.9,2,2
		v24.1C231.7,135.9,230.8,136.7,229.7,136.7z"/>
	<path style="fill:#4AA9DB;" d="M248.7,136.7c-1.1,0-2-0.9-2-2v-22.2h-3.4c-1.1,0-2-0.9-2-2c0-1.1,0.9-2,2-2h5.4c1.1,0,2,0.9,2,2
		v24.1C250.6,135.9,249.8,136.7,248.7,136.7z"/>
</g>
</svg>
