<?xml version="1.0" encoding="utf-8"?>
<!-- Generator: Adobe Illustrator 18.0.0, SVG Export Plug-In . SVG Version: 6.00 Build 0)  -->
<!DOCTYPE svg PUBLIC "-//W3C//DTD SVG 1.1//EN" "http://www.w3.org/Graphics/SVG/1.1/DTD/svg11.dtd">
<svg version="1.1" id="Layer_1" xmlns:sketch="http://www.bohemiancoding.com/sketch/ns"
	 xmlns="http://www.w3.org/2000/svg" xmlns:xlink="http://www.w3.org/1999/xlink" x="0px" y="0px" viewBox="0 0 283 218"
	 style="enable-background:new 0 0 283 218;" xml:space="preserve">
<g>
	<polyline style="fill:#4AA9DB;" points="140.4,24 140.4,193 143.4,193 143.4,24 	"/>
	<path style="fill:#4AA9DB;" d="M141.9,4v1.5c2.5,0,4.7,1,6.4,2.6c1.6,1.6,2.6,3.9,2.6,6.4c0,2.5-1,4.7-2.6,6.4
		c-1.6,1.6-3.9,2.6-6.4,2.6c-2.5,0-4.7-1-6.4-2.6c-1.6-1.6-2.6-3.9-2.6-6.4c0-2.5,1-4.7,2.6-6.4c1.6-1.6,3.9-2.6,6.4-2.6V4V2.5
		c-6.6,0-12,5.4-12,12c0,6.6,5.4,12,12,12c6.6,0,12-5.4,12-12c0-6.6-5.4-12-12-12V4z"/>
	<path style="fill:#4AA9DB;" d="M141.9,192v1.5c2.5,0,4.7,1,6.4,2.6c1.6,1.6,2.6,3.9,2.6,6.4c0,2.5-1,4.7-2.6,6.4
		c-1.6,1.6-3.9,2.6-6.4,2.6c-2.5,0-4.7-1-6.4-2.6c-1.6-1.6-2.6-3.9-2.6-6.4c0-2.5,1-4.7,2.6-6.4c1.6-1.6,3.9-2.6,6.4-2.6V192v-1.5
		c-6.6,0-12,5.4-12,12c0,6.6,5.4,12,12,12c6.6,0,12-5.4,12-12c0-6.6-5.4-12-12-12V192z"/>
	<path style="fill:#4AA9DB;" d="M281.9,100c-3.8-1.4-7.2-1.1-10.1,0.6c-3.1,1.8-5.5,5.2-7.3,10.2l-3.6,8.8h-0.5l8.9-47.4
		c0.7-3.6-1.8-7.1-5.5-7.8c-3.6-0.7-7.2,1.8-7.9,5.4l-6.5,35.2h-0.2V64.8c0-3.7-3.1-6.8-6.8-6.8c-3.8,0-6.8,3.1-6.8,6.8v40.3h-0.2
		l-6-34.3c-0.7-3.6-4.2-6.1-7.9-5.4s-6.1,4.2-5.5,7.8l6,33.4h-0.6L214,87.1c-0.6-1.7-1.8-3.1-3.5-3.9c-1.6-0.8-3.5-0.8-5.2-0.2
		c-1.7,0.6-3.1,1.8-3.9,3.5c-0.8,1.7-0.8,3.5-0.2,5.2l10.4,25.4c-0.3,3.6-1.9,27.8,7.5,42c0.3,0.5,0.9,0.8,1.5,0.8
		c0.3,0,0.7-0.1,0.9-0.2c0.8-0.6,1-1.6,0.5-2.4c-9.3-14.1-6.9-40-6.9-40.2s0-0.6-0.1-0.8l-10.5-25.7c-0.3-0.8-0.2-1.7,0.1-2.6
		c0.3-0.8,1-1.5,1.9-1.7c0.8-0.3,1.7-0.2,2.6,0.1c0.9,0.3,1.5,1,1.7,1.9l8,21c0.3,0.8,1.3,1.2,2,1l3.3-1c0.8-0.2,1.4-1.1,1.1-1.9
		l-6-34.9c-0.1-0.9,0-1.8,0.6-2.5c0.6-0.7,1.3-1.2,2.2-1.4c1.8-0.3,3.5,0.9,3.9,2.7l6.4,35.8c0.1,0.8,0.8,1.4,1.7,1.4h3.4
		c0.9,0,1.7-0.8,1.7-1.7v-42c0-1.8,1.5-3.4,3.4-3.4c1.9,0,3.4,1.5,3.4,3.4v41.9c0,0.9,0.7,1.7,1.6,1.7l3.4,0.1
		c0.8,0,1.6-0.6,1.7-1.4l6.7-36.7c0.3-1.8,2.1-3.1,3.9-2.7c1.8,0.3,3.1,2,2.7,3.9l-9.1,48.7c-3.9,1.4-6.7,4.4-6.9,4.6
		c-0.7,0.7-0.6,1.8,0.1,2.4c0.7,0.7,1.8,0.6,2.4-0.1c1.4-1.5,5.6-5,9.1-4.1c0.8,0.2,1.7-0.2,1.9-1l4.2-10.1c1.6-4.3,3.5-7.1,5.9-8.5
		c1.7-1,3.5-1.2,5.7-0.8l-4.1,12.4l-5.4,13.1c-6.9,18.9-15.5,28.8-15.6,28.9c-0.6,0.7-0.6,1.8,0.1,2.4c0.3,0.2,0.7,0.5,1.1,0.5
		c0.5,0,0.9-0.2,1.3-0.6c0.3-0.5,9.1-10.4,16.2-29.9l5.2-13.1l4.9-14.2C283.2,101.3,282.8,100.4,281.9,100z"/>
	<path style="fill:#4AA9DB;" d="M82.4,121.7c-1.9-3.4-4.4-5.3-7.5-6c-5.9-1.2-12.3,3.2-14.4,4.6c0,0-0.1,0-0.1,0.1l-2.9,2.4v-9
		l14.3-39c0.6-1.7,0.6-3.5-0.2-5.1c-0.8-1.6-2.2-2.8-3.9-3.5c-3.5-1.2-7.4,0.5-8.7,3.9L46.3,97.8v-32c0-3.7-3.1-6.8-6.8-6.8
		c-3.8,0-6.8,3.1-6.8,6.8v31.3c-1.1-0.7-2.5-1.1-3.9-1.1c-3.4,0-6.4,2.4-7.1,5.6c-1.1-0.8-2.6-1.2-4.1-1.2c-4.1,0-7.3,3.3-7.3,7.3
		v18.8c0,14.7,2.5,21.1,4.3,25.7c1,2.6,1.8,4.5,1.8,7.3c0,0.9,0.8,1.7,1.7,1.7s1.7-0.8,1.7-1.7c0-3.4-0.9-5.8-2.1-8.5
		c-1.5-3.9-3.5-9-4-19.5c1.1,0.7,2.4,1,3.8,1c3.4,0,6.4-2.4,7.1-5.6c1.1,0.8,2.6,1.2,4.1,1.2c4.1,0,7.3-3.3,7.3-7.3V110v-6.8V65.8
		c0-1.8,1.5-3.4,3.4-3.4c1.9,0,3.4,1.5,3.4,3.4v39.8c0,0.8,0.6,1.5,1.4,1.7c0.8,0.1,1.6-0.2,1.9-0.9l16.1-34.7v-0.1
		c0.7-1.7,2.6-2.6,4.3-1.9c0.9,0.3,1.6,0.9,1.9,1.7c0.3,0.8,0.5,1.7,0.1,2.5l-14.5,39c-0.1,0.2-0.1,0.3-0.1,0.6v12.1l-8.7,7.3
		c-0.7,0.6-0.8,1.7-0.2,2.4s1.7,0.8,2.4,0.2l14.9-12.5c1.8-1.2,7.2-5,11.6-4.1c1.7,0.3,3.2,1.4,4.4,3.2l-11.6,8.2
		c-0.1,0.1-0.2,0.2-0.3,0.2l-8,9c-0.1,0.1-0.2,0.3-0.3,0.6C58,140.4,54,152,54,159.2c0,0.9,0.8,1.7,1.7,1.7s1.7-0.8,1.7-1.7
		c0-6,3.3-16,4-17.9l7.5-8.6l12.9-9C82.7,123.4,82.9,122.5,82.4,121.7z M21.4,125c0,2.2-1.7,3.9-3.9,3.9c-2.1,0-3.8-1.6-3.9-3.5
		v-17.8c0-2.2,1.7-3.9,3.9-3.9s3.9,1.7,3.9,3.9V125z M32.7,120.7c0,2.2-1.7,3.9-3.9,3.9s-3.9-1.7-3.9-3.9v-13.1v-4.3
		c0-2.2,1.7-3.9,3.9-3.9s3.9,1.7,3.9,3.9v6.8V120.7z"/>
</g>
</svg>
