<?xml version="1.0" encoding="utf-8"?>
<!-- Generator: Adobe Illustrator 18.0.0, SVG Export Plug-In . SVG Version: 6.00 Build 0)  -->
<!DOCTYPE svg PUBLIC "-//W3C//DTD SVG 1.1//EN" "http://www.w3.org/Graphics/SVG/1.1/DTD/svg11.dtd">
<svg version="1.1" id="Layer_1" xmlns:sketch="http://www.bohemiancoding.com/sketch/ns"
	 xmlns="http://www.w3.org/2000/svg" xmlns:xlink="http://www.w3.org/1999/xlink" x="0px" y="0px" viewBox="0 0 283 213"
	 style="enable-background:new 0 0 283 213;" xml:space="preserve">
<title>Line 6 + Oval 62 + Oval 63 + icon_60406 + icon_62768</title>
<desc>Created with Sketch.</desc>
<g id="Page-1" sketch:type="MSPage">
	<g id="HomewithSwitchLink" transform="translate(-178.000000, -2042.000000)" sketch:type="MSArtboardGroup">
		
			<g id="Line-6-_x2B_-Oval-62-_x2B_-Oval-65-_x2B_-icon_x5F_15511" transform="translate(178.000000, 2044.000000)" sketch:type="MSLayerGroup">
			<g id="Line-6-_x2B_-Oval-62-_x2B_-Oval-65" transform="translate(129.500000, -0.000000)" sketch:type="MSShapeGroup">
				<path id="Line-6" style="fill:none;stroke:#4AA9DB;stroke-width:3;stroke-linecap:square;" d="M12,21v166"/>
				<circle id="Oval-62" style="fill:none;stroke:#4AA9DB;stroke-width:3;" cx="12" cy="10" r="10.5"/>
				<circle id="Oval-63" style="fill:none;stroke:#4AA9DB;stroke-width:3;" cx="12" cy="198" r="10.5"/>
			</g>
			<g id="icon_15511" transform="translate(0.000000, 44.000000)">
				<g id="Group" transform="translate(1.304348, 62.117647)" sketch:type="MSShapeGroup">
					<path id="Shape" style="fill:#4AA9DB;" d="M17.2,15.1c0-2.9-3.5-5.3-7.9-5.3c-4.3,0-7.9,2.3-7.9,5.2c0,0,0,0,0,0h0v11.6h15.7
						L17.2,15.1L17.2,15.1C17.2,15,17.2,15.1,17.2,15.1L17.2,15.1z"/>
					<ellipse id="Oval" style="fill:#4AA9DB;" cx="9.9" cy="4" rx="4.5" ry="4.5"/>
				</g>
				<g id="Group_1_" transform="translate(74.347826, 20.705882)" sketch:type="MSShapeGroup">
					<path id="Shape_1_" style="fill:#4AA9DB;" d="M17.2,15.1c0-2.9-3.5-5.3-7.9-5.3s-7.9,2.3-7.9,5.2c0,0,0,0,0,0h0v11.6h15.7
						L17.2,15.1L17.2,15.1C17.2,15,17.2,15.1,17.2,15.1L17.2,15.1z"/>
					<ellipse id="Oval_1_" style="fill:#4AA9DB;" cx="9.9" cy="4" rx="4.5" ry="4.5"/>
				</g>
				<g id="Group_2_" transform="translate(0.000000, 20.705882)" sketch:type="MSShapeGroup">
					<path id="Shape_2_" style="fill:#4AA9DB;" d="M17.2,15.1c0-2.9-3.5-5.3-7.9-5.3s-7.9,2.3-7.9,5.2c0,0,0,0,0,0h0v11.6h15.7
						L17.2,15.1L17.2,15.1C17.2,15,17.2,15.1,17.2,15.1L17.2,15.1z"/>
					<ellipse id="Oval_2_" style="fill:#4AA9DB;" cx="9.9" cy="4" rx="4.5" ry="4.5"/>
				</g>
				<g id="Group_3_" transform="translate(73.043478, 62.117647)" sketch:type="MSShapeGroup">
					<path id="Shape_3_" style="fill:#4AA9DB;" d="M17.2,15.1c0-2.9-3.5-5.3-7.9-5.3s-7.9,2.3-7.9,5.2c0,0,0,0,0,0h0v11.6h15.7
						L17.2,15.1L17.2,15.1C17.2,15,17.2,15.1,17.2,15.1L17.2,15.1z"/>
					<ellipse id="Oval_3_" style="fill:#4AA9DB;" cx="9.9" cy="4" rx="4.5" ry="4.5"/>
				</g>
				<g id="Group_4_" transform="translate(37.826087, 82.823529)" sketch:type="MSShapeGroup">
					<path id="Shape_4_" style="fill:#4AA9DB;" d="M17.2,15.1c0-2.9-3.5-5.3-7.9-5.3s-7.9,2.3-7.9,5.2c0,0,0,0,0,0h0v11.6h15.7
						L17.2,15.1L17.2,15.1C17.2,15,17.2,15.1,17.2,15.1L17.2,15.1z"/>
					<ellipse id="Oval_4_" style="fill:#4AA9DB;" cx="9.9" cy="4" rx="4.5" ry="4.5"/>
				</g>
				<g id="Group_5_" transform="translate(37.826087, 0.000000)" sketch:type="MSShapeGroup">
					<path id="Shape_5_" style="fill:#4AA9DB;" d="M17.2,15.1c0-2.9-3.5-5.3-7.9-5.3s-7.9,2.3-7.9,5.2c0,0,0,0,0,0h0v11.6h15.7
						L17.2,15.1L17.2,15.1C17.2,15,17.2,15.1,17.2,15.1L17.2,15.1z"/>
					<ellipse id="Oval_5_" style="fill:#4AA9DB;" cx="9.9" cy="4" rx="4.5" ry="4.5"/>
				</g>
				<text transform="matrix(1 0 0 1 36.2546 64.9731)" style="fill:#4AA9DB; font-family:'Helvetica'; font-size:37.5;">$</text>
			</g>
		</g>
	</g>
</g>
</svg>
