<?xml version="1.0" encoding="UTF-8" standalone="no"?>
<svg width="124px" height="189px" viewBox="0 0 124 189" version="1.1" xmlns="http://www.w3.org/2000/svg" xmlns:xlink="http://www.w3.org/1999/xlink" xmlns:sketch="http://www.bohemiancoding.com/sketch/ns">
    <!-- Generator: Sketch 3.1.1 (8761) - http://www.bohemiancoding.com/sketch -->
    <title>Shape</title>
    <desc>Created with Sketch.</desc>
    <defs></defs>
    <g id="Placeholder" stroke="none" stroke-width="1" fill="none" fill-rule="evenodd" sketch:type="MSPage">
        <g id="5Personal-Details-without-PW" sketch:type="MSArtboardGroup" transform="translate(-303.000000, -922.000000)" fill="#9AC24B">
            <g id="icon_261" sketch:type="MSLayerGroup" transform="translate(358.500000, 1010.500000) rotate(-27.000000) translate(-358.500000, -1010.500000) translate(334.000000, 908.000000)">
                <path d="M48.148625,195.77295 L39.4000833,185.23185 C38.8243333,184.59635 38.7916667,184.0777 38.7916667,183.3479 L38.7916667,130.175 C38.7916667,129.37345 38.887625,128.86095 39.340875,128.04915 L43.885625,118.92665 C44.3980833,117.6454 44.74925,117.4076 45.147375,114.9025 L48.5181667,86.1246 C49,82 47.383,82 45.0024167,82 L22.4583333,82 L22.4583333,79.95 L20.4166667,69.7 L20.4166667,34.85 L18.375,28.7 L18.375,2.05 C18.375,0.91635 17.462375,0 16.3333333,0 C15.2042917,0 14.2916667,0.91635 14.2916667,2.05 L14.2916667,28.7 L12.25,34.85 L12.25,69.7 L10.2083333,79.95 L10.2083333,82 L6.125,82 C2.74195833,82 -5.1159077e-13,84.75315 -5.1159077e-13,88.15 L-5.1159077e-13,198.85 C-5.1159077e-13,202.24685 2.74195833,205 6.125,205 L46.9583333,205 C48.087375,205 49,204.08365 49,202.95 L49,198.04845 C49,197.1198 49,196.70365 48.148625,195.77295 L48.148625,195.77295 Z" id="Shape" sketch:type="MSShapeGroup"></path>
            </g>
        </g>
    </g>
</svg>