<?xml version="1.0" encoding="UTF-8" standalone="no"?>
<svg width="75px" height="65px" viewBox="0 0 75 65" version="1.1" xmlns="http://www.w3.org/2000/svg" xmlns:xlink="http://www.w3.org/1999/xlink" xmlns:sketch="http://www.bohemiancoding.com/sketch/ns">
    <!-- Generator: Sketch 3.1.1 (8761) - http://www.bohemiancoding.com/sketch -->
    <title>Briefcase 2</title>
    <desc>Created with Sketch.</desc>
    <defs></defs>
    <g id="Placeholder" stroke="none" stroke-width="1" fill="none" fill-rule="evenodd" sketch:type="MSPage">
        <g id="5Personal-Details-without-PW" sketch:type="MSArtboardGroup" transform="translate(-287.000000, -795.000000)" fill="#9AC24B">
            <g id="Briefcase-2" sketch:type="MSLayerGroup" transform="translate(287.000000, 795.000000)">
                <path d="M75,64.3870118 L0.05025,64.3870118 L0.05025,12.9385412 C0.0465,12.6569412 0.0645,9.88084706 1.97025,7.92244706 C3.1785,6.68084706 4.83825,6.05063529 6.90225,6.05063529 L23.8995,6.05063529 L23.8995,8.43218824 L6.90225,8.43218824 C5.50125,8.43218824 4.41225,8.82070588 3.66675,9.5872 C2.41125,10.8777412 2.421,12.8820706 2.42175,12.9024 L2.42175,12.9302588 L2.42175,62.0062118 L72.6285,62.0062118 L72.6285,12.9024 C72.6285,12.8873412 72.642,10.8664471 71.3715,9.57515294 C70.62675,8.81694118 69.54225,8.43218824 68.14875,8.43218824 L51.1515,8.43218824 L51.1515,6.05063529 L68.1495,6.05063529 C70.21275,6.05063529 71.87175,6.68084706 73.07925,7.92244706 C74.985,9.88084706 75.00225,12.6569412 75,12.9385412 L75,64.3870118 L75,64.3870118 Z" id="Shape" sketch:type="MSShapeGroup"></path>
                <path d="M52.029,13.8556235 L50.25075,13.8556235 L50.25075,6.28404706 L50.262,6.24263529 C50.2695,6.13647059 50.28525,5.47162353 49.5885,4.68555294 C47.3445,2.16169412 41.0955,1.78522353 37.5705,1.78522353 C34.044,1.78522353 27.79575,2.16169412 25.5525,4.68555294 C24.8505,5.47463529 24.87075,6.14249412 24.879,6.24338824 L24.89775,6.32922353 L24.88875,6.38192941 L24.88875,13.8556235 L23.10975,13.8556235 L23.10975,6.43463529 C23.07375,6.07548235 23.055,4.88357647 24.13125,3.60583529 C26.14425,1.21374118 30.666,0 37.569,0 C44.472,0 48.993,1.21374118 51.009,3.60583529 C52.0845,4.88357647 52.06425,6.07623529 52.02825,6.43463529 L52.029,13.8556235 L52.029,13.8556235 Z" id="Shape" sketch:type="MSShapeGroup"></path>
                <path d="M46.9065,13.7991529 L45.12825,13.7991529 L45.1365,9.0112 C45.132,8.92385882 45.096,8.63171765 44.7705,8.28084706 C44.19225,7.66117647 42.48975,6.62211765 37.56975,6.62211765 C32.64975,6.62211765 30.9465,7.66042353 30.36975,8.28084706 C30.0345,8.64 30.0045,8.93816471 30.003,9.01722353 L30.0285,9.11209412 L30.0105,9.14748235 L30.0105,13.7999059 L28.2315,13.7999059 L28.2315,9.18964706 C28.2075,8.89223529 28.22175,8.06174118 28.94625,7.20112941 C30.26775,5.63275294 33.16875,4.83689412 37.56975,4.83689412 C41.97,4.83689412 44.871,5.63275294 46.19325,7.20112941 C46.91775,8.06174118 46.932,8.89223529 46.90725,9.18964706 L46.9065,13.7991529 L46.9065,13.7991529 Z" id="Shape" sketch:type="MSShapeGroup"></path>
                <path d="M23.9685,13.3270588 L29.1315,13.3270588 L29.1315,12.3595294 C29.8875,12.3595294 30.5025,12.9769412 30.5025,13.7359059 C30.5025,14.4948706 29.8875,15.1122824 29.1315,15.1122824 L23.9685,15.1122824 C23.2125,15.1122824 22.5975,14.4948706 22.5975,13.7359059 C22.5975,12.9769412 23.2125,12.3595294 23.9685,12.3595294 L23.9685,13.3270588 L23.9685,13.3270588 Z" id="Shape" sketch:type="MSShapeGroup"></path>
                <path d="M46.0725,13.3270588 L51.23625,13.3270588 L51.23625,12.3595294 C51.99075,12.3595294 52.60725,12.9769412 52.60725,13.7359059 C52.60725,14.4948706 51.99075,15.1122824 51.23625,15.1122824 L46.0725,15.1122824 C45.31575,15.1122824 44.7,14.4948706 44.7,13.7359059 C44.7,12.9769412 45.31575,12.3595294 46.0725,12.3595294 L46.0725,13.3270588 L46.0725,13.3270588 Z" id="Shape" sketch:type="MSShapeGroup"></path>
                <rect id="Rectangle-path" sketch:type="MSShapeGroup" x="1.5" y="20.3294118" width="72.57825" height="2.3808"></rect>
            </g>
        </g>
    </g>
</svg>