<?xml version="1.0" encoding="UTF-8" standalone="no"?>
<svg width="31px" height="31px" viewBox="0 0 31 31" version="1.1" xmlns="http://www.w3.org/2000/svg" xmlns:xlink="http://www.w3.org/1999/xlink" xmlns:sketch="http://www.bohemiancoding.com/sketch/ns">
    <!-- Generator: Sketch 3.0.4 (8054) - http://www.bohemiancoding.com/sketch -->
    <title>Rectangle 38</title>
    <desc>Created with Sketch.</desc>
    <defs></defs>
    <g id="Page-1" stroke="none" stroke-width="1" fill="none" fill-rule="evenodd" sketch:type="MSPage">
        <g id="Artboard-1" sketch:type="MSArtboardGroup" transform="translate(-148.000000, -116.000000)" fill="#D0011B">
            <path d="M160.197309,131.15 L149.507194,120.459885 C148.608519,119.561211 148.613212,118.109624 149.511418,117.211418 C150.415886,116.30695 151.864012,116.311321 152.759885,117.207194 L163.45,127.897309 L174.140115,117.207194 C175.038789,116.308519 176.490376,116.313212 177.388582,117.211418 C178.29305,118.115886 178.288679,119.564012 177.392806,120.459885 L166.702691,131.15 L177.092806,141.540115 C177.991481,142.438789 177.986788,143.890376 177.088582,144.788582 C176.184114,145.69305 174.735988,145.688679 173.840115,144.792806 L163.45,134.402691 L153.059885,144.792806 C152.161211,145.691481 150.709624,145.686788 149.811418,144.788582 C148.90695,143.884114 148.911321,142.435988 149.807194,141.540115 L160.197309,131.15 Z" id="Rectangle-38" sketch:type="MSShapeGroup"></path>
        </g>
    </g>
</svg>