<?xml version="1.0" encoding="UTF-8" standalone="no"?>
<svg width="59px" height="37px" viewBox="0 0 59 37" version="1.1" xmlns="http://www.w3.org/2000/svg" xmlns:xlink="http://www.w3.org/1999/xlink" xmlns:sketch="http://www.bohemiancoding.com/sketch/ns">
    <!-- Generator: Sketch 3.1.1 (8761) - http://www.bohemiancoding.com/sketch -->
    <title>Shape</title>
    <desc>Created with Sketch.</desc>
    <defs></defs>
    <g id="Page-1" stroke="none" stroke-width="1" fill="none" fill-rule="evenodd" sketch:type="MSPage">
        <g id="HomewithSwitchLink" sketch:type="MSArtboardGroup" transform="translate(-277.000000, -1046.000000)" fill="#FFFFFF">
            <g id="icon_6489-2" sketch:type="MSLayerGroup" transform="translate(306.500000, 1064.760132) rotate(-270.000000) translate(-306.500000, -1064.760132) translate(288.000000, 1035.760132)">
                <path d="M34.4411946,23.3819681 L33.4137364,22.5111616 L33.2827457,22.3935795 C33.0505881,22.1851913 32.803811,21.9802957 32.5511861,21.7788926 L8.4231691,1.31144848 C6.55889091,-0.481388325 3.58703966,-0.429000236 1.78591769,1.42612019 L1.14265985,2.08970264 C-0.658462122,3.94598725 -0.605831935,6.90416798 1.25844626,8.6964227 L18.1188192,28.8419711 L3.1040115,49.7931319 C1.36896965,51.711118 1.52452109,54.6652241 3.45137073,56.3922848 L4.13965663,57.0093 C6.06592149,58.7363607 9.03367928,58.5803606 10.7681363,56.6635386 L33.4242625,33.7286156 C33.5195816,33.6459588 33.6207485,33.5679588 33.7067111,33.478899 L34.6008395,32.5574508 C37.101943,29.9793747 37.0294303,25.8709844 34.4411946,23.3819681 L34.4411946,23.3819681 Z" id="Shape" sketch:type="MSShapeGroup" transform="translate(18.245868, 29.104577) rotate(2.000000) translate(-18.245868, -29.104577) "></path>
            </g>
        </g>
    </g>
</svg>