<?xml version="1.0" encoding="UTF-8" standalone="no"?>
<svg width="73px" height="117px" viewBox="0 0 73 117" version="1.1" xmlns="http://www.w3.org/2000/svg" xmlns:xlink="http://www.w3.org/1999/xlink" xmlns:sketch="http://www.bohemiancoding.com/sketch/ns">
    <!-- Generator: Sketch 3.1.1 (8761) - http://www.bohemiancoding.com/sketch -->
    <title>arrowBlue</title>
    <desc>Created with Sketch.</desc>
    <defs></defs>
    <g id="Page-1" stroke="none" stroke-width="1" fill="none" fill-rule="evenodd" sketch:type="MSPage">
        <g id="arrowBlue" sketch:type="MSLayerGroup" transform="translate(35.141173, 60.028331) rotate(1.000000) translate(-35.141173, -60.028331) translate(-2.858827, 1.028331)" fill="#4AA9DB">
            <path d="M70.8823893,46.7639362 L68.8274728,45.0223233 L68.5654915,44.787159 C68.1011762,44.3703826 67.607622,43.9605914 67.1023722,43.5577852 L18.8463382,2.62289697 C15.1177818,-0.962776649 9.17407932,-0.858000472 5.57183538,2.85224038 L4.28531969,4.17940529 C0.683075755,7.89197449 0.78833613,13.808336 4.51689252,17.3928454 L38.2376384,57.6839422 L8.20802299,99.5862638 C4.7379393,103.422236 5.04904219,109.330448 8.90274147,112.78457 L10.2793133,114.0186 C14.131843,117.472721 20.0673586,117.160721 23.5362727,113.327077 L68.8485249,67.4572312 C69.0391631,67.2919176 69.241497,67.1359175 69.4134223,66.957798 L71.2016791,65.1149015 C76.203886,59.9587494 76.0588606,51.7419688 70.8823893,46.7639362 L70.8823893,46.7639362 Z" id="Shape" sketch:type="MSShapeGroup" transform="translate(38.491736, 58.209154) rotate(1.000000) translate(-38.491736, -58.209154) "></path>
        </g>
    </g>
</svg>