<?xml version="1.0" encoding="UTF-8" standalone="no"?>
<svg width="31px" height="50px" viewBox="0 0 31 50" version="1.1" xmlns="http://www.w3.org/2000/svg" xmlns:xlink="http://www.w3.org/1999/xlink" xmlns:sketch="http://www.bohemiancoding.com/sketch/ns">
    <!-- Generator: Sketch 3.1.1 (8761) - http://www.bohemiancoding.com/sketch -->
    <title>icon_6489 5</title>
    <desc>Created with Sketch.</desc>
    <defs></defs>
    <g id="Page-1" stroke="none" stroke-width="1" fill="none" fill-rule="evenodd" sketch:type="MSPage">
        <g id="HomewithSwitchLink" sketch:type="MSArtboardGroup" transform="translate(-569.000000, -6178.000000)" fill="#414042">
            <g id="icon_6489-5" sketch:type="MSLayerGroup" transform="translate(584.690545, 6203.308105) rotate(2.000000) translate(-584.690545, -6203.308105) translate(569.190545, 6178.808105)">
                <path d="M28.8060063,19.5562647 L27.9466584,18.8279376 L27.8371001,18.729594 C27.6429276,18.5553018 27.4365276,18.3839307 27.2252366,18.2154807 L7.04498972,1.09687232 C5.48574039,-0.402624684 3.00013655,-0.358808213 1.49370998,1.19278171 L0.955700493,1.74779034 C-0.550726077,3.30035397 -0.506707119,5.77452403 1.0525422,7.27353419 L15.15426,24.1229147 L2.59614034,41.6460952 C1.14498201,43.2502648 1.27508249,45.721027 2.88666546,47.16551 L3.46233561,47.6815706 C5.07342949,49.1260536 7.55560963,48.9955779 9.00627885,47.3923819 L27.9554622,28.2100177 C28.0351854,28.1408851 28.1197996,28.0756472 28.1916973,28.0011592 L28.9395304,27.2304762 C31.0314092,25.074219 30.9707608,21.6380339 28.8060063,19.5562647 L28.8060063,19.5562647 Z" id="Shape" sketch:type="MSShapeGroup"></path>
            </g>
        </g>
    </g>
</svg>