<?xml version="1.0" encoding="UTF-8" standalone="no"?>
<svg width="63px" height="102px" viewBox="0 0 63 102" version="1.1" xmlns="http://www.w3.org/2000/svg" xmlns:xlink="http://www.w3.org/1999/xlink" xmlns:sketch="http://www.bohemiancoding.com/sketch/ns">
    <!-- Generator: Sketch 3.0.4 (8054) - http://www.bohemiancoding.com/sketch -->
    <title>icon_6489</title>
    <desc>Created with Sketch.</desc>
    <defs></defs>
    <g id="Page-1" stroke="none" stroke-width="1" fill="none" fill-rule="evenodd" sketch:type="MSPage">
        <g id="icon_6489" sketch:type="MSLayerGroup" transform="translate(31.500000, 50.000000) rotate(-178.000000) translate(-31.500000, -50.000000) " fill="#4990E2">
            <path d="M58.896,40.169 L57.139,38.673 L56.915,38.471 C56.518,38.113 56.096,37.761 55.664,37.415 L14.404,2.253 C11.216,-0.827 6.134,-0.737 3.054,2.45 L1.954,3.59 C-1.126,6.779 -1.036,11.861 2.152,14.94 L30.984,49.549 L5.308,85.542 C2.341,88.837 2.607,93.912 5.902,96.879 L7.079,97.939 C10.373,100.906 15.448,100.638 18.414,97.345 L57.157,57.944 C57.32,57.802 57.493,57.668 57.64,57.515 L59.169,55.932 C63.446,51.503 63.322,44.445 58.896,40.169 L58.896,40.169 Z" id="Shape" sketch:type="MSShapeGroup"></path>
        </g>
    </g>
</svg>