<?xml version="1.0" encoding="UTF-8" standalone="no"?>
<svg width="127px" height="127px" viewBox="0 0 127 127" version="1.1" xmlns="http://www.w3.org/2000/svg" xmlns:xlink="http://www.w3.org/1999/xlink" xmlns:sketch="http://www.bohemiancoding.com/sketch/ns">
    <!-- Generator: Sketch 3.0.4 (8054) - http://www.bohemiancoding.com/sketch -->
    <title>Oval 3</title>
    <desc>Created with Sketch.</desc>
    <defs></defs>
    <g id="Page-1" stroke="none" stroke-width="1" fill="none" fill-rule="evenodd" sketch:type="MSPage">
        <path d="M63.5,127 C98.5700816,127 127,98.5700816 127,63.5 C127,28.4299184 98.5700816,0 63.5,0 C28.4299184,0 0,28.4299184 0,63.5 C0,98.5700816 28.4299184,127 63.5,127 Z M50.2376487,43 C52.8499126,43 54.9703986,45.1201091 54.9703986,47.7293582 C54.9703986,50.3416221 52.8499126,52.4621081 50.2376487,52.4621081 C47.6148333,52.4621081 45.5,50.3416221 45.5,47.7293582 C45.5,45.1201091 47.6148333,43 50.2376487,43 Z M46.1485439,56.0518982 L54.3218547,56.0518982 L54.3218547,82.306808 L46.1485439,82.306808 L46.1485439,56.0518982 Z M59.4453889,56.0518982 L67.2727594,56.0518982 L67.2727594,59.6390505 L67.3843045,59.6390505 C68.4733758,57.574337 71.1391511,55.3980786 75.1114352,55.3980786 C83.3736806,55.3980786 84.901772,60.8347679 84.901772,67.9054411 L84.901772,82.306808 L76.7427812,82.306808 L76.7427812,69.5401787 C76.7427812,66.4949242 76.6839939,62.5784126 72.4991713,62.5784126 C68.2495321,62.5784126 67.6013651,65.8942391 67.6013651,69.3189728 L67.6013651,82.306808 L59.4453889,82.306808 L59.4453889,56.0518982 Z" id="Oval-3" fill="#4AA9DB" sketch:type="MSShapeGroup"></path>
    </g>
</svg>