<?xml version="1.0" encoding="UTF-8" standalone="no"?>
<svg width="30px" height="30px" viewBox="0 0 30 30" version="1.1" xmlns="http://www.w3.org/2000/svg" xmlns:xlink="http://www.w3.org/1999/xlink" xmlns:sketch="http://www.bohemiancoding.com/sketch/ns">
    <!-- Generator: Sketch 3.1.1 (8761) - http://www.bohemiancoding.com/sketch -->
    <title>Shape 2</title>
    <desc>Created with Sketch.</desc>
    <defs></defs>
    <g id="Page-1" stroke="none" stroke-width="1" fill="none" fill-rule="evenodd" sketch:type="MSPage">
        <g id="HomewithSwitchLink" sketch:type="MSArtboardGroup" transform="translate(-569.000000, -7221.000000)" fill="#4AA9DB">
            <path d="M596.693462,7233.69288 L586.308269,7233.69288 L586.308269,7223.30769 C586.308269,7222.03327 585.275,7221 584.000577,7221 C582.726154,7221 581.692885,7222.03327 581.692885,7223.30769 L581.692885,7233.69288 L571.307692,7233.69288 C570.033269,7233.69288 569,7234.72615 569,7236.00058 C569,7237.275 570.033269,7238.30827 571.307692,7238.30827 L581.692885,7238.30827 L581.692885,7248.69346 C581.692885,7249.96788 582.726154,7251.00115 584.000577,7251.00115 C585.275,7251.00115 586.308269,7249.96788 586.308269,7248.69346 L586.308269,7238.30827 L596.693462,7238.30827 C597.967885,7238.30827 599.001154,7237.275 599.001154,7236.00058 C599.001154,7234.72615 597.967885,7233.69288 596.693462,7233.69288 L596.693462,7233.69288 Z" id="Shape-2" sketch:type="MSShapeGroup"></path>
        </g>
    </g>
</svg>