<?xml version="1.0" encoding="UTF-8" standalone="no"?>
<svg width="100px" height="100px" viewBox="0 0 100 100" version="1.1" xmlns="http://www.w3.org/2000/svg" xmlns:xlink="http://www.w3.org/1999/xlink" xmlns:sketch="http://www.bohemiancoding.com/sketch/ns">
    <!-- Generator: Sketch 3.1.1 (8761) - http://www.bohemiancoding.com/sketch -->
    <title>smileyGoodGray 2</title>
    <desc>Created with Sketch.</desc>
    <defs></defs>
    <g id="Page-1" stroke="none" stroke-width="1" fill="none" fill-rule="evenodd" sketch:type="MSPage">
        <g id="smileyGoodGray-2" sketch:type="MSLayerGroup" fill="#4AA9DB">
            <path d="M34.896,42.709 C38.636,42.709 41.667,39.678 41.667,35.938 C41.667,32.198 38.636,29.167 34.896,29.167 C31.157,29.167 28.125,32.198 28.125,35.938 C28.125,39.678 31.158,42.709 34.896,42.709 L34.896,42.709 Z M65.105,42.709 C68.845,42.709 71.876,39.678 71.876,35.938 C71.876,32.198 68.845,29.167 65.105,29.167 C61.366,29.167 58.334,32.198 58.334,35.938 C58.334,39.678 61.366,42.709 65.105,42.709 L65.105,42.709 Z M50,0 C22.386,0 0,22.386 0,50 C0,77.613 22.386,100 50,100 C77.613,100 100,77.613 100,50 C100,22.386 77.613,0 50,0 L50,0 Z M50,91.67 C26.989,91.67 8.333,73.014 8.333,50.002 C8.333,26.99 26.989,8.333 50,8.333 C73.013,8.333 91.669,26.989 91.669,50.001 C91.669,73.013 73.014,91.67 50,91.67 L50,91.67 Z M71.355,57.294 C71.355,57.294 67.71,72.918 50,72.918 C32.292,72.918 28.646,57.294 28.646,57.294 L19.792,57.294 C19.792,57.294 25.26,81.253 50,81.253 C74.48,81.253 80.209,57.294 80.209,57.294 L71.355,57.294 L71.355,57.294 Z" id="Shape" sketch:type="MSShapeGroup"></path>
        </g>
    </g>
</svg>