<?xml version="1.0" encoding="UTF-8" standalone="no"?>
<svg width="100px" height="100px" viewBox="0 0 100 100" version="1.1" xmlns="http://www.w3.org/2000/svg" xmlns:xlink="http://www.w3.org/1999/xlink" xmlns:sketch="http://www.bohemiancoding.com/sketch/ns">
    <!-- Generator: Sketch 3.1.1 (8761) - http://www.bohemiancoding.com/sketch -->
    <title>smileyFairGray 2</title>
    <desc>Created with Sketch.</desc>
    <defs></defs>
    <g id="Page-1" stroke="none" stroke-width="1" fill="none" fill-rule="evenodd" sketch:type="MSPage">
        <g id="smileyFairGray-2" sketch:type="MSLayerGroup" fill="#4AA9DB">
            <path d="M50,0 C22.386,0 0,22.385 0,50 C0,77.615 22.386,100 50,100 C77.615,100 100,77.615 100,50 C100,22.385 77.615,0 50,0 L50,0 Z M50,91.669 C26.988,91.669 8.333,73.014 8.333,50.001 C8.333,26.988 26.989,8.334 50,8.334 C73.013,8.334 91.667,26.988 91.667,50.001 C91.667,73.014 73.014,91.669 50,91.669 L50,91.669 Z M34.896,42.709 C38.635,42.709 41.667,39.678 41.667,35.938 C41.667,32.198 38.635,29.166 34.896,29.166 C31.156,29.166 28.125,32.198 28.125,35.938 C28.125,39.678 31.157,42.709 34.896,42.709 L34.896,42.709 Z M65.106,29.167 C61.366,29.167 58.334,32.199 58.334,35.939 C58.334,39.679 61.366,42.71 65.106,42.71 C68.846,42.71 71.877,39.679 71.877,35.939 C71.877,32.198 68.847,29.167 65.106,29.167 L65.106,29.167 Z M28.125,72.658 L71.876,72.658 L71.876,64.325 L28.125,64.325 L28.125,72.658 L28.125,72.658 Z" id="Shape" sketch:type="MSShapeGroup"></path>
        </g>
    </g>
</svg>