<?xml version="1.0" encoding="UTF-8" standalone="no"?>
<svg width="29px" height="35px" viewBox="0 0 29 35" version="1.1" xmlns="http://www.w3.org/2000/svg" xmlns:xlink="http://www.w3.org/1999/xlink" xmlns:sketch="http://www.bohemiancoding.com/sketch/ns">
    <!-- Generator: Sketch 3.1.1 (8761) - http://www.bohemiancoding.com/sketch -->
    <title>Rectangle 8 + icon_32763 5</title>
    <desc>Created with Sketch.</desc>
    <defs></defs>
    <g id="Placeholder" stroke="none" stroke-width="1" fill="none" fill-rule="evenodd" sketch:type="MSPage">
        <g id="1aSteps-Progress" sketch:type="MSArtboardGroup" transform="translate(-99.000000, -1225.000000)" fill="#4AA9DB">
            <g id="Rectangle-8-+-icon_32763-5" sketch:type="MSLayerGroup" transform="translate(114.000000, 1242.000000) rotate(-7.000000) translate(-114.000000, -1242.000000) translate(99.000000, 1221.000000)">
                <g id="icon_32763" transform="translate(14.933754, 21.180448) scale(-1, 1) rotate(-100.000000) translate(-14.933754, -21.180448) translate(-2.498678, 7.776193)" sketch:type="MSShapeGroup">
                    <path d="M32.5615995,2.00166597 C31.8732962,1.1440607 29.8746596,-0.302304392 27.7810487,-0.0604608783 C25.6884814,0.181382635 22.5084053,0.716138559 18.896248,2.64090769 C15.2846125,4.56450282 11.3280426,6.63954364 8.03472784,9.4929449 C4.74089124,12.3475202 2.65093313,14.9039 1.96054248,15.7791153 C1.27484835,16.6560915 0.19412345,17.6598595 0.187861403,20.867808 C0.182643031,24.0734086 2.89463112,26.9027429 2.89463112,26.9027429 C3.52240131,27.351797 4.06406835,26.7225342 4.06406835,26.7225342 C4.06406835,26.7225342 9.91334187,20.9441179 10.6026889,20.2279793 C11.2909922,19.5130147 10.8531707,18.7951152 10.8531707,18.7951152 C10.8531707,18.7951152 9.93786822,17.5688746 9.24591205,16.9349159 C8.55291221,16.3009572 8.64319005,15.9287999 8.88010416,15.1809635 C9.1175401,14.433714 9.77870787,12.6087346 13.346509,9.92615003 C16.9153538,7.24121743 20.4481919,6.46403099 20.7826896,6.40709211 C21.1197964,6.35132722 22.7766296,6.27619137 23.2708095,6.68298155 C23.7675985,7.09153273 23.7576836,7.98670593 23.7576836,7.98670593 C23.7576836,7.98670593 24.2367302,9.66963154 24.3922377,10.2895023 C24.5498325,10.9087861 25.4421742,10.8113442 25.4421742,10.8113442 L34.1777294,7.62217966 C34.1777294,7.62217966 34.6578197,7.41379508 34.6009394,6.54973282 C34.5393626,5.68567056 33.2519902,2.86044524 32.5615995,2.00166597 L32.5615995,2.00166597 Z M2.15936246,24.2982291 L5.48607481,21.5428567 C5.48555297,21.5422697 3.60798261,24.0434716 2.15936246,24.2982291 L2.15936246,24.2982291 Z M30.9418168,6.03258686 C29.6335708,6.79685932 24.0347792,8.38410413 24.0347792,8.38410413 C28.7949784,5.80541832 32.2511064,5.2689014 30.9418168,6.03258686 L30.9418168,6.03258686 Z" id="Shape"></path>
                </g>
            </g>
        </g>
    </g>
</svg>