<?xml version="1.0" encoding="UTF-8" standalone="no"?>
<svg width="301px" height="143px" viewBox="0 0 301 143" version="1.1" xmlns="http://www.w3.org/2000/svg" xmlns:xlink="http://www.w3.org/1999/xlink" xmlns:sketch="http://www.bohemiancoding.com/sketch/ns">
    <!-- Generator: Sketch 3.1.1 (8761) - http://www.bohemiancoding.com/sketch -->
    <title>icon_47820 + Line</title>
    <desc>Created with Sketch.</desc>
    <defs></defs>
    <g id="Placeholder" stroke="none" stroke-width="1" fill="none" fill-rule="evenodd" sketch:type="MSPage">
        <g id="6Thank-you" sketch:type="MSArtboardGroup" transform="translate(-170.000000, -124.000000)">
            <g id="icon_47820-+-Line" sketch:type="MSLayerGroup" transform="translate(170.000000, 124.000000)">
                <g id="icon_47820" transform="translate(73.000000, 0.000000)">
                    <g id="Layer_1" transform="translate(66.650000, 0.000000)" fill="#4AA9DB" sketch:type="MSShapeGroup">
                        <ellipse id="Oval" cx="11.53975" cy="11.4911957" rx="11.53975" ry="11.4911957"></ellipse>
                    </g>
                    <g id="Layer_2_1_"></g>
                    <g id="Layer_3" transform="translate(7.200000, 15.978261)" fill="#4AA9DB" sketch:type="MSShapeGroup">
                        <path d="M21.37425,59.5580217 L21.37425,56.2920217 C18.05725,55.8135435 14.9867,54.4707174 13.08795,53.2652609 L15.40055,49.5840652 C16.88545,50.448413 19.2337,51.406913 21.37425,51.9301522 L21.37425,46.0757391 L19.92655,45.5586739 C17.09625,44.523 13.6382,42.8483261 13.6382,38.6438913 C13.6382,34.796 16.50415,32.0100217 21.37425,31.6997826 L21.37425,28.5665217 L25.0059,28.5665217 L25.0059,31.8757391 C27.66415,32.2816739 30.2883,33.1768913 32.19325,34.1431087 L29.87755,37.8922174 C28.5647,37.2763696 26.7016,36.6173043 25.0059,36.2391522 L25.0059,41.7740652 C25.4151,41.9160652 25.86925,42.0457174 26.3203,42.2216739 C29.18625,43.2604348 32.98375,44.9088696 32.98375,49.3772391 C32.98375,53.401087 29.84035,56.1546522 25.00745,56.4664348 L25.00745,59.5595652 L21.37425,59.5595652 L21.37425,59.5580217 Z M21.37425,40.6442391 L21.37425,36.0631957 C20.0645,36.3086087 19.0632,37.0278696 19.0632,38.2981522 C19.0632,39.4681087 19.95445,40.1256304 21.37425,40.6442391 L21.37425,40.6442391 Z M25.0059,47.2487826 L25.0059,52.1663043 C26.4195,51.8977391 27.56185,51.1321739 27.56185,49.7600217 C27.56185,48.5437609 26.5559,47.8584565 25.0059,47.2487826 L25.0059,47.2487826 Z" id="Shape"></path>
                        <path d="M115.9072,51.9301522 L115.9072,46.0757391 L114.4533,45.5586739 C111.6261,44.523 108.16805,42.8483261 108.16805,38.6438913 C108.16805,34.796 111.03555,32.0100217 115.90565,31.6997826 L115.90565,28.5665217 L119.53575,28.5665217 L119.53575,31.8757391 C122.1909,32.2816739 124.81505,33.1768913 126.7231,34.1431087 L124.4074,37.8922174 C123.093,37.2763696 121.22835,36.6173043 119.53575,36.2391522 L119.53575,41.7740652 C119.94495,41.9160652 120.396,42.0457174 120.85015,42.2216739 C123.71455,43.2604348 127.5136,44.9088696 127.5136,49.3772391 C127.5136,53.401087 124.36865,56.1546522 119.5373,56.4664348 L119.5373,59.5595652 L115.9072,59.5595652 L115.9072,56.2935652 C112.58865,55.815087 109.51655,54.4722609 107.6178,53.2668043 L109.9273,49.5856087 C111.41685,50.448413 113.76355,51.406913 115.9072,51.9301522 L115.9072,51.9301522 Z M115.9072,36.0631957 C114.5959,36.3086087 113.5915,37.0278696 113.5915,38.2981522 C113.5915,39.4681087 114.4874,40.1271739 115.9072,40.6442391 L115.9072,36.0631957 L115.9072,36.0631957 Z M119.5373,52.1647609 C120.9478,51.8961957 122.0917,51.1306304 122.0917,49.7584783 C122.0917,48.5437609 121.0873,47.8584565 119.5373,47.2472391 L119.5373,52.1647609 L119.5373,52.1647609 Z" id="Shape"></path>
                        <path d="M122.43115,21.0034783 L128.0778,21.0034783 C135.4589,21.0235435 135.4589,9.62958696 128.084,9.62958696 L124.64145,9.62958696 L128.2917,0.444347826 L106.4801,0.444347826 L110.13035,9.62958696 L30.46965,9.62958696 L34.12145,0.444347826 L12.30985,0.444347826 L15.96165,9.62958696 L12.51755,9.62958696 C5.13955,9.62958696 5.13955,21.0235435 12.5222,21.0034783 L18.16885,21.0034783 C7.53895,23.4421739 -0.4203,32.9253043 -0.4203,44.242087 C-0.4203,57.4048696 10.33205,68.1073478 23.5458,68.1073478 C36.76265,68.1073478 47.51345,57.4033261 47.51345,44.242087 C47.51345,32.9253043 39.5542,23.4421739 28.92275,21.0034783 L53.79715,21.0683043 L53.7615,119.654891 C53.7615,123.43487 56.84445,126.509478 60.6435,126.509478 C64.44875,126.509478 67.52705,123.43487 67.52705,119.654891 L67.5069,67.1781739 L73.2202,67.1781739 L73.2202,119.654891 C73.2202,123.43487 76.3047,126.509478 80.11615,126.509478 C83.9121,126.509478 86.9966,123.43487 86.9966,119.654891 L86.93305,21.0683043 L111.6757,21.0034783 C101.04425,23.4421739 93.0881,32.9253043 93.0881,44.242087 C93.0881,57.4048696 103.8389,68.1073478 117.05265,68.1073478 C130.2695,68.1073478 141.0203,57.4033261 141.0203,44.242087 C141.02185,32.9253043 133.0626,23.4421739 122.43115,21.0034783 L122.43115,21.0034783 Z M28.17875,4.46819565 L26.1374,9.61878261 L20.33265,9.62958696 L18.25255,4.46819565 L28.17875,4.46819565 L28.17875,4.46819565 Z M43.21995,44.242087 C43.21995,55.0448913 34.39425,63.835 23.5458,63.835 C12.69735,63.835 3.8732,55.0448913 3.8732,44.242087 C3.8732,33.4392826 12.6989,24.6522609 23.5458,24.6522609 C34.39425,24.6507174 43.21995,33.4392826 43.21995,44.242087 L43.21995,44.242087 Z M122.349,4.46819565 L120.2658,9.62958696 L114.4657,9.61878261 L112.4228,4.46819565 L122.349,4.46819565 L122.349,4.46819565 Z M117.0542,63.835 C106.2073,63.835 97.38315,55.0448913 97.38315,44.242087 C97.38315,33.4392826 106.2073,24.6522609 117.0542,24.6522609 C127.9011,24.6522609 136.72835,33.4408261 136.72835,44.242087 C136.72835,55.0448913 127.9011,63.835 117.0542,63.835 L117.0542,63.835 Z" id="Shape"></path>
                    </g>
                </g>
                <path d="M0.5,129.5 L299.75187,129.5" id="Line" stroke="#4AA9DB" stroke-linecap="square" opacity="0.5" sketch:type="MSShapeGroup"></path>
            </g>
        </g>
    </g>
</svg>