<?xml version="1.0" encoding="UTF-8" standalone="no"?>
<svg width="127px" height="127px" viewBox="0 0 127 127" version="1.1" xmlns="http://www.w3.org/2000/svg" xmlns:xlink="http://www.w3.org/1999/xlink" xmlns:sketch="http://www.bohemiancoding.com/sketch/ns">
    <!-- Generator: Sketch 3.0.4 (8054) - http://www.bohemiancoding.com/sketch -->
    <title>Oval 2</title>
    <desc>Created with Sketch.</desc>
    <defs></defs>
    <g id="Page-1" stroke="none" stroke-width="1" fill="none" fill-rule="evenodd" sketch:type="MSPage">
        <path d="M63.5,127 C98.5700816,127 127,98.5700816 127,63.5 C127,28.4299184 98.5700816,0 63.5,0 C28.4299184,0 0,28.4299184 0,63.5 C0,98.5700816 28.4299184,127 63.5,127 Z M66.8420594,84 L66.8420594,65.2679507 L73.1296339,65.2679507 L74.0709939,57.9676077 L66.8420594,57.9676077 L66.8420594,53.3066614 C66.8420594,51.1930417 67.4289142,49.7527283 70.4599702,49.7527283 L74.3258172,49.7509159 L74.3258172,43.2215674 C73.6568607,43.1327599 71.3623636,42.9339397 68.6927,42.9339397 C63.1190295,42.9339397 59.3032048,46.3359938 59.3032048,52.5838767 L59.3032048,57.9676077 L52.9995,57.9676077 L52.9995,65.2679507 L59.3032048,65.2679507 L59.3032048,84 L66.8420594,84 Z" id="Oval-2" fill="#4AA9DB" sketch:type="MSShapeGroup"></path>
    </g>
</svg>