<?xml version="1.0" encoding="UTF-8" standalone="no"?>
<svg width="162px" height="166px" viewBox="0 0 162 166" version="1.1" xmlns="http://www.w3.org/2000/svg" xmlns:xlink="http://www.w3.org/1999/xlink" xmlns:sketch="http://www.bohemiancoding.com/sketch/ns">
    <!-- Generator: Sketch 3.1.1 (8761) - http://www.bohemiancoding.com/sketch -->
    <title>Group</title>
    <desc>Created with Sketch.</desc>
    <defs></defs>
    <g id="Page-1" stroke="none" stroke-width="1" fill="none" fill-rule="evenodd" sketch:type="MSPage">
        <g id="icon_75918-2" sketch:type="MSLayerGroup" transform="translate(1.000000, 0.000000)">
            <g id="Group" sketch:type="MSShapeGroup">
                <path d="M59.9534711,87.284381 C63.9119578,90.3217857 68.3569959,92.1833571 73.0523177,92.1833571 C77.7196078,92.1833571 82.1366141,90.3455 86.0790826,87.3436667 C92.8347397,82.1956905 98.1848036,73.6368095 100.981974,65.0443333 C101.20823,65.2577619 101.466523,65.3921429 101.744839,65.4395714 C102.237397,65.5245476 102.761991,65.3269286 103.268566,64.9040238 C104.536002,63.8428095 105.733359,61.3567619 106.277977,58.339119 C106.992787,54.4045238 106.348056,50.9560714 104.850358,50.2624286 C104.740234,50.2110476 104.628107,50.1754762 104.509973,50.1537381 L101.100108,53.3946905 L59.1325407,32.0735714 C45.4129906,30.8206667 43.2345214,48.9107143 43.0683331,50.5252619 C43.0583217,50.6003571 43.0563194,50.639881 43.0563194,50.6418571 L43.0563194,50.639881 C42.569768,50.2505714 42.0732052,50.0707381 41.5946628,50.1517619 C41.3864267,50.1853571 41.1922066,50.2742857 41.0100001,50.4007619 C39.6865,51.3414286 39.1538963,54.623881 39.8246566,58.3371429 C40.3372376,61.161119 41.4144585,63.5167381 42.5937952,64.6787381 C43.1764556,65.2557857 43.7871478,65.5403571 44.3617991,65.4395714 C44.6401146,65.3901667 44.896405,65.2538095 45.1246638,65.0443333 C47.9098205,73.6032143 53.2378595,82.1324524 59.9534711,87.284381 L59.9534711,87.284381 Z" id="Shape"></path>
                <path d="M92.9909167,89.671619 C92.9648872,89.6617381 92.9468667,89.649881 92.9228395,89.6380238 C89.4969565,92.9679048 85.6966491,95.606119 81.6360468,97.1949762 C78.8829263,98.272 76.0036629,98.8707857 73.0523177,98.8707857 C70.1009726,98.8707857 67.2257137,98.272 64.470591,97.1949762 C60.3739477,95.5883333 56.5396018,92.9224524 53.0896915,89.5451429 L53.085687,89.5451429 C53.0836847,93.697119 49.8740468,96.0645952 47.6895709,97.1949762 C47.4312781,97.327381 47.1870013,97.442 46.9627471,97.5427857 C46.4201321,97.7898095 46.00366,97.9360476 45.8234558,97.9953333 C45.8234558,97.9953333 45.8234558,97.9953333 45.8234558,97.9992857 C45.9495988,99.0605 46.4301434,100.092071 47.1990149,101.064357 C50.8111089,105.619476 60.948599,112.192286 72.9021475,112.192286 C84.8516914,112.192286 94.9911838,105.619476 98.5992733,101.064357 C99.3721493,100.092071 99.8506917,99.0565476 99.9768347,98.0032381 C99.9848438,97.9637143 99.9848438,97.9419762 99.9888483,97.9064048 C98.5131757,97.368881 93.0770143,95.0231429 92.9909167,89.671619 L92.9909167,89.671619 Z" id="Shape"></path>
                <path d="M132.487683,106.738 C126.284653,101.097952 120.448037,100.586119 118.557895,100.153333 C118.175462,100.064405 117.783017,99.9814048 117.392574,99.9102619 C107.371216,90.7664286 114.21297,52.6042143 114.21297,52.6042143 C114.21297,-5.56890476 74.347786,0.154142857 74.347786,0.154142857 C73.8592323,0.12647619 73.3786876,0.108690476 72.9001452,0.0948571429 C72.4216029,0.108690476 71.9430605,0.130428571 71.4545067,0.156119048 C71.4545067,0.156119048 31.5873202,-5.56692857 31.5873202,52.6042143 C31.5873202,52.6042143 38.4290748,90.7664286 28.4057141,99.9102619 C28.0132692,99.983381 27.624829,100.068357 27.2443978,100.157286 C23.9406532,100.914167 8.59325808,101.886452 0.285842229,130.088667 C-0.837430919,133.918524 -0.442983842,138.084333 1.38909268,141.495238 C8.19280419,154.18831 43.9773634,158.101167 72.9001452,158.095238 C83.7824796,158.09919 95.6339123,157.545857 106.548283,156.178333 C103.010273,151.095571 100.931917,144.953571 100.931917,138.333333 C100.931917,121.059452 115.045914,106.996881 132.487683,106.738 L132.487683,106.738 Z M44.3617991,65.4375952 C43.7871478,65.538381 43.1764556,65.2538095 42.5937952,64.6767619 C41.4144585,63.5147619 40.3372376,61.1591429 39.8246566,58.3351667 C39.1538963,54.6219048 39.6865,51.3394524 41.0100001,50.3987857 C41.1922066,50.2723095 41.3864267,50.183381 41.5946628,50.1497857 C42.0732052,50.0687619 42.569768,50.2485952 43.0563194,50.6379048 L43.0563194,50.639881 C43.0563194,50.6379048 43.0583217,50.598381 43.0683331,50.5232857 C43.2345214,48.9087381 45.4129906,30.8186905 59.1325407,32.0715952 L101.100108,53.3927143 L104.509973,50.1517619 C104.628107,50.1735 104.740234,50.2090714 104.850358,50.2604524 C106.348056,50.9540952 106.992787,54.4025476 106.277977,58.3371429 C105.735362,61.3547857 104.536002,63.8408333 103.268566,64.9020476 C102.761991,65.3249524 102.237397,65.5225714 101.744839,65.4375952 C101.466523,65.3901667 101.20823,65.2557857 100.981974,65.0423571 C98.1848036,73.6348333 92.8347397,82.1937143 86.0790826,87.3416905 C82.1366141,90.3455 77.7196078,92.181381 73.0523177,92.181381 C68.3569959,92.181381 63.9119578,90.3217857 59.9534711,87.2824048 C53.2378595,82.1304762 47.9098205,73.6012381 45.1246638,65.040381 C44.896405,65.2518333 44.6401146,65.3881905 44.3617991,65.4375952 L44.3617991,65.4375952 Z M99.9768347,98.0032381 C99.8506917,99.0565476 99.3701471,100.092071 98.5992733,101.064357 C94.9911838,105.619476 84.8516914,112.192286 72.9021475,112.192286 C60.948599,112.192286 50.8111089,105.619476 47.1990149,101.064357 C46.4301434,100.092071 45.9495988,99.0605 45.8234558,97.9992857 L45.8234558,97.9953333 C46.00366,97.9380238 46.4201321,97.7898095 46.9627471,97.5427857 C47.1870013,97.442 47.4312781,97.3293571 47.6895709,97.1949762 C49.8740468,96.0645952 53.0836847,93.6951429 53.085687,89.5451429 L53.0896915,89.5451429 C56.5396018,92.9224524 60.3739477,95.5903095 64.470591,97.1949762 C67.2257137,98.272 70.1009726,98.8707857 73.0523177,98.8707857 C76.0056651,98.8707857 78.8829263,98.272 81.6360468,97.1949762 C85.6946469,95.6041429 89.4969565,92.9659286 92.9228395,89.6380238 C92.9468667,89.649881 92.9648872,89.6617381 92.9909167,89.671619 C93.0770143,95.0231429 98.5131757,97.3708571 99.9888483,97.9064048 C99.9848438,97.9419762 99.9848438,97.9637143 99.9768347,98.0032381 L99.9768347,98.0032381 Z" id="Shape" fill="#4AA9DB"></path>
                <path d="M132.968228,110.666667 C117.508706,110.666667 104.936456,123.077143 104.936456,138.333333 C104.936456,153.589524 117.508706,166 132.968228,166 C148.423746,166 161,153.589524 161,138.333333 C161,123.077143 148.423746,110.666667 132.968228,110.666667 L132.968228,110.666667 Z M134.766266,150.431571 L134.766266,154.463 L130.84382,154.463 L130.84382,150.708238 C128.160779,150.589667 125.555827,149.878238 124.036104,149.008714 L125.237466,144.384429 C126.919372,145.293476 129.28205,146.123476 131.885,146.123476 C134.16959,146.123476 135.729358,145.253952 135.729358,143.673 C135.729358,142.171095 134.449907,141.222524 131.486549,140.234429 C127.19969,138.809595 124.274374,136.833405 124.274374,132.999595 C124.274374,129.519524 126.757188,126.792381 131.044047,125.962381 L131.044047,122.207619 L134.970497,122.207619 L134.970497,125.685714 C137.653538,125.804286 139.455581,126.357619 140.777079,126.99 L139.615763,131.45619 C138.57258,131.021429 136.730492,130.112381 133.847224,130.112381 C131.242272,130.112381 130.401319,131.219048 130.401319,132.325714 C130.401319,133.63 131.804909,134.46 135.206765,135.726738 C139.974169,137.386738 141.89835,139.560548 141.89835,143.11769 C141.900352,146.63531 139.373488,149.641095 134.766266,150.431571 L134.766266,150.431571 Z" id="Shape" fill="#4AA9DB"></path>
            </g>
        </g>
    </g>
</svg>