<?xml version="1.0" encoding="UTF-8" standalone="no"?>
<svg width="168px" height="190px" viewBox="0 0 168 190" version="1.1" xmlns="http://www.w3.org/2000/svg" xmlns:xlink="http://www.w3.org/1999/xlink" xmlns:sketch="http://www.bohemiancoding.com/sketch/ns">
    <!-- Generator: Sketch 3.1.1 (8761) - http://www.bohemiancoding.com/sketch -->
    <title>threetofivecolor 2</title>
    <desc>Created with Sketch.</desc>
    <defs>
        <path id="path-1" d="M8.691,0.223 C3.962,0.223 0.128,4.062 0.128,8.777 C0.128,13.502 3.967,17.332 8.691,17.332 L63.438,17.332 C68.166,17.332 72,13.492 72,8.777 C72,4.053 68.161,0.223 63.438,0.223 L8.691,0.223 L8.691,0.223 Z"></path>
        <path id="path-3" d="M8.691,0.446 C3.962,0.446 0.128,4.285 0.128,9 C0.128,13.725 3.967,17.555 8.691,17.555 L63.438,17.555 C68.166,17.555 72,13.715 72,9 C72,4.275 68.161,0.446 63.438,0.446 L8.691,0.446 L8.691,0.446 Z"></path>
        <path id="path-5" d="M7.85864354,0.04 C3.52018496,0.459132083 0.128,4.11998182 0.128,8.555 C0.128,13.279 3.967,17.109 8.691,17.109 L63.438,17.109 C68.166,17.109 72,13.269 72,8.555 C72,4.11092797 68.6039297,0.458594118 64.2704314,0.04 L7.85864354,0.04 L7.85864354,0.04 Z"></path>
        <path id="path-7" d="M8.691,-0.109 C3.962,-0.109 0.128,3.731 0.128,8.445 C0.128,13.17 3.967,17 8.691,17 L63.438,17 C68.166,17 72,13.16 72,8.445 C72,3.721 68.161,-0.109 63.438,-0.109 L8.691,-0.109 L8.691,-0.109 Z"></path>
        <path id="path-9" d="M8.691,-0.332 C3.962,-0.332 0.128,3.508 0.128,8.223 C0.128,12.947 3.967,16.777 8.691,16.777 L63.438,16.777 C68.166,16.777 72,12.938 72,8.223 C72,3.498 68.161,-0.332 63.438,-0.332 L8.691,-0.332 L8.691,-0.332 Z"></path>
        <path id="path-11" d="M8.562,0.446 C3.834,0.446 0,4.285 0,9 C0,13.725 3.839,17.555 8.562,17.555 L63.309,17.555 C68.038,17.555 71.872,13.715 71.872,9 C71.872,4.275 68.033,0.446 63.309,0.446 L8.562,0.446 L8.562,0.446 Z"></path>
        <path id="path-13" d="M8.562,-0.109 C3.834,-0.109 0,3.731 0,8.445 C0,13.17 3.839,17 8.562,17 L63.309,17 C68.038,17 71.872,13.16 71.872,8.445 C71.872,3.721 68.033,-0.109 63.309,-0.109 L8.562,-0.109 L8.562,-0.109 Z"></path>
        <path id="path-15" d="M8.562,-0.332 C3.834,-0.332 0,3.508 0,8.223 C0,12.947 3.839,16.777 8.562,16.777 L63.309,16.777 C68.038,16.777 71.872,12.938 71.872,8.223 C71.872,3.498 68.033,-0.332 63.309,-0.332 L8.562,-0.332 L8.562,-0.332 Z"></path>
    </defs>
    <g id="Page-1" stroke="none" stroke-width="1" fill="none" fill-rule="evenodd" sketch:type="MSPage">
        <g id="threetofivecolor-2" sketch:type="MSLayerGroup">
            <g id="Group-3" transform="translate(96.000000, 43.000000)">
                <mask id="mask-2" sketch:name="Clip 2" fill="white">
                    <use xlink:href="#path-1"></use>
                </mask>
                <g id="Clip-2"></g>
                <path d="M0.12,0.12 L72,0.12 L72,17.4 L0.12,17.4 L0.12,0.12 Z" id="Fill-1" fill="#78BFE4" sketch:type="MSShapeGroup" mask="url(#mask-2)"></path>
            </g>
            <g id="Group-6" transform="translate(96.000000, 86.000000)">
                <mask id="mask-4" sketch:name="Clip 5" fill="white">
                    <use xlink:href="#path-3"></use>
                </mask>
                <g id="Clip-5"></g>
                <path d="M0.12,0.44 L72,0.44 L72,17.6 L0.12,17.6 L0.12,0.44 Z" id="Fill-4" fill="#78BFE4" sketch:type="MSShapeGroup" mask="url(#mask-4)"></path>
            </g>
            <g id="Group-9" transform="translate(96.000000, 0.000000)">
                <mask id="mask-6" sketch:name="Clip 8" fill="white">
                    <use xlink:href="#path-5"></use>
                </mask>
                <g id="Clip-8"></g>
                <path d="M0.12,0.04 L72,0.04 L72,17.2 L0.12,17.2 L0.12,0.04 Z" id="Fill-7" fill="#78BFE4" sketch:type="MSShapeGroup" mask="url(#mask-6)"></path>
            </g>
            <g id="Group-12" transform="translate(96.000000, 173.000000)">
                <mask id="mask-8" sketch:name="Clip 11" fill="white">
                    <use xlink:href="#path-7"></use>
                </mask>
                <g id="Clip-11"></g>
                <path d="M0.12,-0.16 L72,-0.16 L72,17 L0.12,17 L0.12,-0.16 Z" id="Fill-10" fill="#78BFE4" sketch:type="MSShapeGroup" mask="url(#mask-8)"></path>
            </g>
            <g id="Group-15" transform="translate(96.000000, 130.000000)">
                <mask id="mask-10" sketch:name="Clip 14" fill="white">
                    <use xlink:href="#path-9"></use>
                </mask>
                <g id="Clip-14"></g>
                <path d="M0.12,-0.36 L72,-0.36 L72,16.8 L0.12,16.8 L0.12,-0.36 Z" id="Fill-13" fill="#78BFE4" sketch:type="MSShapeGroup" mask="url(#mask-10)"></path>
            </g>
            <g id="Group-18" transform="translate(0.000000, 86.000000)">
                <mask id="mask-12" sketch:name="Clip 17" fill="white">
                    <use xlink:href="#path-11"></use>
                </mask>
                <g id="Clip-17"></g>
                <path d="M0,0.44 L71.88,0.44 L71.88,17.6 L0,17.6 L0,0.44 Z" id="Fill-16" fill="#A4D4ED" sketch:type="MSShapeGroup" mask="url(#mask-12)"></path>
            </g>
            <g id="Group-21" transform="translate(0.000000, 173.000000)">
                <mask id="mask-14" sketch:name="Clip 20" fill="white">
                    <use xlink:href="#path-13"></use>
                </mask>
                <g id="Clip-20"></g>
                <path d="M0,-0.16 L71.88,-0.16 L71.88,17 L0,17 L0,-0.16 Z" id="Fill-19" fill="#A4D4ED" sketch:type="MSShapeGroup" mask="url(#mask-14)"></path>
            </g>
            <g id="Group-24" transform="translate(0.000000, 130.000000)">
                <mask id="mask-16" sketch:name="Clip 23" fill="white">
                    <use xlink:href="#path-15"></use>
                </mask>
                <g id="Clip-23"></g>
                <path d="M0,-0.36 L71.88,-0.36 L71.88,16.8 L0,16.8 L0,-0.36 Z" id="Fill-22" fill="#A4D4ED" sketch:type="MSShapeGroup" mask="url(#mask-16)"></path>
            </g>
        </g>
    </g>
</svg>