<?xml version="1.0" encoding="UTF-8" standalone="no"?>
<svg width="23px" height="31px" viewBox="0 0 23 31" version="1.1" xmlns="http://www.w3.org/2000/svg" xmlns:xlink="http://www.w3.org/1999/xlink" xmlns:sketch="http://www.bohemiancoding.com/sketch/ns">
    <!-- Generator: Sketch 3.1.1 (8761) - http://www.bohemiancoding.com/sketch -->
    <title>icon_55460</title>
    <desc>Created with Sketch.</desc>
    <defs></defs>
    <g id="Page-1" stroke="none" stroke-width="1" fill="none" fill-rule="evenodd" sketch:type="MSPage">
        <g id="Artboard-8" sketch:type="MSArtboardGroup" transform="translate(-362.000000, -415.000000)" fill="#4AA9DB">
            <g id="icon_55460" sketch:type="MSLayerGroup" transform="translate(373.500000, 430.535534) rotate(-135.000000) translate(-373.500000, -430.535534) translate(359.500000, 418.535534)">
                <path d="M21.8111022,12.2673309 L18.1873123,12.2673309 C17.2278146,12.2673309 16.4499809,11.4692702 16.4499809,10.4848214 C16.4499809,9.50037265 17.2278146,8.70231192 18.1873123,8.70231192 L26.0053036,8.70161644 C26.1198604,8.70161644 26.2337393,8.7137873 26.3462625,8.73673806 C26.3954067,8.74682249 26.4408227,8.76594813 26.4882722,8.77985769 C26.5496177,8.79828785 26.6113022,8.81289288 26.6706141,8.83827782 C26.7268757,8.86157632 26.7770367,8.89495926 26.829909,8.92416932 C26.8766807,8.95024974 26.9248081,8.97146181 26.9692073,9.00206283 C27.1600223,9.13246491 27.3233843,9.30077053 27.4504813,9.49619978 C27.4789511,9.53966714 27.4982698,9.58661189 27.5226725,9.63181794 C27.5524979,9.68849938 27.5863904,9.74274665 27.6104541,9.80290547 C27.63384,9.86132561 27.6470581,9.92252765 27.6646822,9.98268648 C27.6795949,10.0334564 27.6989136,10.0828353 27.7087425,10.1353438 C27.7311115,10.2507932 27.7429739,10.3672857 27.7429739,10.4841259 L27.7429739,18.5054187 C27.7429739,19.4898675 26.9651402,20.2879282 26.0053036,20.2879282 C25.0461448,20.2879282 24.2683111,19.4898675 24.2683111,18.5054187 L24.2683111,14.7877423 L16.1764681,23.0893126 C15.8372038,23.4373993 15.3925337,23.6116164 14.9482026,23.6116164 C14.5038714,23.6116164 14.0588624,23.437747 13.7199371,23.0893126 C13.0410696,22.3934871 13.0410696,21.264379 13.7199371,20.5685535 L21.8111022,12.2673309 L21.8111022,12.2673309 Z" id="Shape" sketch:type="MSShapeGroup"></path>
                <path d="M11.7607397,13.0945644 C11.7607397,14.0779356 10.9829106,14.8773593 10.0234185,14.8773593 L2.20513378,14.8773593 C2.09159444,14.8773593 1.97771619,14.8651889 1.8648547,14.8418912 C1.8126605,14.8311117 1.76385553,14.8105958 1.71335594,14.7949481 C1.65540005,14.777214 1.59710522,14.7643481 1.54084394,14.7413982 C1.48051558,14.7149709 1.42560999,14.6801983 1.36867086,14.6482074 C1.32630544,14.624562 1.2822454,14.605437 1.24157459,14.5776189 C1.05109965,14.4465259 0.886721806,14.2782262 0.759625536,14.0817606 C0.732511665,14.0410766 0.714548725,13.9962198 0.691840858,13.9534494 C0.659304213,13.8950313 0.625750798,13.8373087 0.599992621,13.7754133 C0.577284754,13.7183862 0.564405665,13.6578817 0.547459496,13.6001591 C0.532207943,13.5480001 0.512550387,13.4968842 0.501704839,13.4433343 C0.479674819,13.3275413 0.4678125,13.2114006 0.4678125,13.0945644 L0.46882927,5.07320455 C0.46882927,4.08913794 1.24665844,3.29040968 2.20615055,3.29040968 C3.16564266,3.29040968 3.94347183,4.0898334 3.94347183,5.07320455 L3.94279398,8.79144633 L12.0342509,0.489470977 C12.7127755,-0.206677909 13.8132598,-0.206677909 14.4911065,0.489470977 C15.1696312,1.18631532 15.1696312,2.31503624 14.4911065,3.01048967 L6.39931069,11.3117696 L10.0234185,11.3117696 C10.9829106,11.3117696 11.7607397,12.1091069 11.7607397,13.0945644 L11.7607397,13.0945644 Z" id="Shape" sketch:type="MSShapeGroup"></path>
            </g>
        </g>
    </g>
</svg>