<?xml version="1.0" encoding="UTF-8" standalone="no"?>
<svg width="146px" height="93px" viewBox="0 0 146 93" version="1.1" xmlns="http://www.w3.org/2000/svg" xmlns:xlink="http://www.w3.org/1999/xlink" xmlns:sketch="http://www.bohemiancoding.com/sketch/ns">
    <!-- Generator: Sketch 3.1.1 (8761) - http://www.bohemiancoding.com/sketch -->
    <title>icon_52795</title>
    <desc>Created with Sketch.</desc>
    <defs></defs>
    <g id="Page-1" stroke="none" stroke-width="1" fill="none" fill-rule="evenodd" sketch:type="MSPage">
        <g id="icon_52795" sketch:type="MSLayerGroup" transform="translate(3.000000, 3.000000)" stroke="#4AA9DB" stroke-width="2">
            <path d="M95.8423294,59.8743208 C94.6311529,47.9768679 76.8911765,38.0626038 76.8911765,38.0626038 L42.6090353,39.7636792 L42.6090353,24.7932075 L27.8276706,24.7932075 L27.8276706,40.4975094 L13.4272,41.2111887 L13.4272,63.442717 L-0.2616,64.0354906 C-0.2616,64.0354906 5.42508235,88 14.5247765,88 L113.639106,88 C113.639106,88 140.936518,71.2999057 140.936518,57.9213585 L95.8423294,59.8743208 L95.8423294,59.8743208 Z M29.4882353,59.5569434 C25.8430118,59.5569434 22.8894118,56.5880377 22.8894118,52.9256038 C22.8894118,49.2631698 25.8446824,46.2925849 29.4882353,46.2925849 C33.1317882,46.2925849 36.0870588,49.2631698 36.0870588,52.9256038 C36.0870588,56.5880377 33.1334588,59.5569434 29.4882353,59.5569434 L29.4882353,59.5569434 Z M48.6515529,58.3646792 C45.0063294,58.3646792 42.0527294,55.3924151 42.0527294,51.7299811 C42.0527294,48.0675472 45.008,45.0986415 48.6515529,45.0986415 C52.2951059,45.0986415 55.2503765,48.0692264 55.2503765,51.7299811 C55.2503765,55.3924151 52.2951059,58.3646792 48.6515529,58.3646792 L48.6515529,58.3646792 Z M67.8132,57.1673774 C64.1696471,57.1673774 61.2160471,54.1951132 61.2160471,50.5326792 C61.2160471,46.8702453 64.1696471,43.9013396 67.8132,43.9013396 C71.4584235,43.9013396 74.4136941,46.8702453 74.4136941,50.5326792 C74.4136941,54.1951132 71.4584235,57.1673774 67.8132,57.1673774 L67.8132,57.1673774 Z M128.261765,69.5484528 C126.186894,69.5484528 124.502941,67.8557736 124.502941,65.7701509 C124.502941,63.6845283 126.186894,61.9918491 128.261765,61.9918491 C130.336635,61.9918491 132.020588,63.6845283 132.020588,65.7701509 C132.020588,67.8557736 130.336635,69.5484528 128.261765,69.5484528 L128.261765,69.5484528 Z" id="Shape" sketch:type="MSShapeGroup"></path>
            <path d="M45.0046588,7.10739623 C45.0046588,4.34671698 43.0149882,2.10660377 40.5575529,2.10660377 C40.0480235,2.10660377 39.5668941,2.2224717 39.1108235,2.4004717 C38.3573882,0.843811321 36.9073176,-0.225867925 35.2183529,-0.225867925 C33.5293882,-0.225867925 32.0809882,0.843811321 31.3258824,2.39879245 C30.8714824,2.2224717 30.3886824,2.10660377 29.8808235,2.10660377 C27.4233882,2.10660377 25.4320471,4.34503774 25.4320471,7.10739623 C25.4320471,8.23584906 25.7761882,9.26522642 26.3375059,10.1014906 C25.7778588,10.9377547 25.4320471,11.9671321 25.4320471,13.0955849 C25.4320471,15.8562642 27.4233882,18.0963774 29.8808235,18.0963774 C30.3903529,18.0963774 30.8714824,17.9805094 31.3258824,17.8041887 C32.0793176,19.3608491 33.5293882,20.4288491 35.2183529,20.4288491 C36.9073176,20.4288491 38.3557176,19.3591698 39.1108235,17.8025094 C39.5668941,17.9788302 40.0480235,18.0963774 40.5575529,18.0963774 C43.0149882,18.0963774 45.0046588,15.8579434 45.0046588,13.0955849 C45.0046588,11.9671321 44.6605176,10.9377547 44.0992,10.1014906 C44.6605176,9.26522642 45.0046588,8.23584906 45.0046588,7.10739623 L45.0046588,7.10739623 Z" id="Shape" sketch:type="MSShapeGroup"></path>
        </g>
    </g>
</svg>