<?xml version="1.0" encoding="UTF-8" standalone="no"?>
<svg width="127px" height="127px" viewBox="0 0 127 127" version="1.1" xmlns="http://www.w3.org/2000/svg" xmlns:xlink="http://www.w3.org/1999/xlink" xmlns:sketch="http://www.bohemiancoding.com/sketch/ns">
    <!-- Generator: Sketch 3.0.4 (8054) - http://www.bohemiancoding.com/sketch -->
    <title>Oval 4</title>
    <desc>Created with Sketch.</desc>
    <defs></defs>
    <g id="Page-1" stroke="none" stroke-width="1" fill="none" fill-rule="evenodd" sketch:type="MSPage">
        <path d="M63.5,127 C98.5700816,127 127,98.5700816 127,63.5 C127,28.4299184 98.5700816,0 63.5,0 C28.4299184,0 0,28.4299184 0,63.5 C0,98.5700816 28.4299184,127 63.5,127 Z M57.689781,86.8161435 C51.9096715,86.8161435 46.529562,85.1090359 42,82.1831435 C42.8007299,82.2783812 43.6155109,82.3271031 44.4416058,82.3271031 C49.2368613,82.3271031 53.6501825,80.6784619 57.1531022,77.9127085 C52.6742701,77.8294215 48.8943431,74.8480045 47.5919708,70.7509462 C48.2167883,70.8713722 48.8580292,70.9359058 49.5175182,70.9359058 C50.4510949,70.9359058 51.355292,70.8099641 52.2142336,70.5742601 C47.5317518,69.6270314 44.0038321,65.4590045 44.0038321,60.4625202 C44.0038321,60.41913 44.0038321,60.3759238 44.004562,60.3329013 C45.3846715,61.1052825 46.9627737,61.5691525 48.6406934,61.6226547 C45.8943431,59.773426 44.0872263,56.6169776 44.0872263,53.0393139 C44.0872263,51.1494529 44.5919708,49.3779955 45.4729927,47.8549283 C50.5211679,54.0939148 58.0629562,58.1994305 66.5695255,58.6294709 C66.395073,57.8747399 66.3043796,57.0876502 66.3043796,56.279417 C66.3043796,50.5844619 70.8872263,45.9672735 76.5399635,45.9672735 C79.4837591,45.9672735 82.1437956,47.219704 84.0109489,49.2239238 C86.3423358,48.7613408 88.5328467,47.9030987 90.5104015,46.7214529 C89.7461679,49.1294215 88.1233577,51.1503722 86.0100365,52.426704 C88.0804745,52.1773946 90.0531022,51.6230673 91.8886861,50.8028834 C90.5164234,52.8709013 88.7810219,54.6872197 86.7813869,56.141157 C86.8010949,56.5833318 86.8109489,57.0280807 86.8109489,57.4752197 C86.8109489,71.1024798 76.5160584,86.8161435 57.689781,86.8161435 Z" id="Oval-4" fill="#4AA9DB" sketch:type="MSShapeGroup"></path>
    </g>
</svg>