<?xml version="1.0" encoding="UTF-8" standalone="no"?>
<svg width="100px" height="100px" viewBox="0 0 100 100" version="1.1" xmlns="http://www.w3.org/2000/svg" xmlns:xlink="http://www.w3.org/1999/xlink" xmlns:sketch="http://www.bohemiancoding.com/sketch/ns">
    <!-- Generator: Sketch 3.1.1 (8761) - http://www.bohemiancoding.com/sketch -->
    <title>smileyPoorGray 2</title>
    <desc>Created with Sketch.</desc>
    <defs></defs>
    <g id="Page-1" stroke="none" stroke-width="1" fill="none" fill-rule="evenodd" sketch:type="MSPage">
        <g id="smileyPoorGray-2" sketch:type="MSLayerGroup" fill="#4AA9DB">
            <path d="M65.106,42.709 C68.845,42.709 71.876,39.678 71.876,35.938 C71.876,32.199 68.846,29.167 65.106,29.167 C61.366,29.167 58.335,32.198 58.335,35.938 C58.335,39.678 61.366,42.709 65.106,42.709 L65.106,42.709 Z M34.897,42.709 C38.636,42.709 41.668,39.678 41.668,35.938 C41.668,32.199 38.637,29.167 34.897,29.167 C31.157,29.167 28.126,32.198 28.126,35.938 C28.125,39.678 31.157,42.709 34.897,42.709 L34.897,42.709 Z M50,0 C22.386,0 0,22.386 0,50 C0,77.613 22.386,100 50,100 C77.614,100 100,77.613 100,50 C100,22.386 77.613,0 50,0 L50,0 Z M50,91.67 C26.989,91.67 8.333,73.014 8.333,50.002 C8.333,26.99 26.989,8.333 50,8.333 C73.013,8.333 91.669,26.989 91.669,50.001 C91.669,73.013 73.014,91.67 50,91.67 L50,91.67 Z M50,56.251 C29.696,56.251 26.563,76.044 26.563,76.044 L35.417,76.044 C35.417,76.044 37.501,64.585 50,64.585 C62.501,64.585 64.584,76.044 64.584,76.044 L73.438,76.044 C73.439,76.044 70.306,56.251 50,56.251 L50,56.251 Z" id="Shape" sketch:type="MSShapeGroup"></path>
        </g>
    </g>
</svg>