<?xml version="1.0" encoding="UTF-8" standalone="no"?>
<svg width="164px" height="140px" viewBox="0 0 164 140" version="1.1" xmlns="http://www.w3.org/2000/svg" xmlns:xlink="http://www.w3.org/1999/xlink" xmlns:sketch="http://www.bohemiancoding.com/sketch/ns">
    <!-- Generator: Sketch 3.0.4 (8054) - http://www.bohemiancoding.com/sketch -->
    <title>Line + icon_47820</title>
    <desc>Created with Sketch.</desc>
    <defs></defs>
    <g id="Page-1" stroke="none" stroke-width="1" fill="none" fill-rule="evenodd" sketch:type="MSPage">
        <g id="Thank-you" sketch:type="MSArtboardGroup" transform="translate(-242.000000, -182.000000)">
            <g id="Line-+-icon_47820" sketch:type="MSLayerGroup" transform="translate(243.000000, 182.000000)">
                <path d="M0.5,128 L162,128" id="Line" stroke="#21388C" stroke-width="2" stroke-linecap="square" sketch:type="MSShapeGroup"></path>
                <g id="icon_47820" transform="translate(5.000000, 0.000000)">
                    <g id="Layer_1" transform="translate(65.360000, 0.000000)" fill="#21388C" sketch:type="MSShapeGroup">
                        <ellipse id="Oval" cx="11.3164" cy="11.2875806" rx="11.3164" ry="11.2875806"></ellipse>
                    </g>
                    <g id="Layer_2_1_"></g>
                    <g id="Layer_3" transform="translate(7.080000, 15.677419)" fill="#21388C" sketch:type="MSShapeGroup">
                        <path d="M20.9412,58.5204194 L20.9412,55.3122903 C17.6884,54.8422903 14.67728,53.5232581 12.81528,52.3391613 L15.08312,48.7231935 C16.53928,49.5722258 18.84208,50.5137419 20.9412,51.0277097 L20.9412,45.2770323 L19.52152,44.769129 C16.746,43.7518065 13.35488,42.1068065 13.35488,37.976871 C13.35488,34.1971613 16.16536,31.4605484 20.9412,31.1558065 L20.9412,28.0780645 L24.50256,28.0780645 L24.50256,31.3286452 C27.10936,31.7273871 29.68272,32.6067419 31.5508,33.5558387 L29.27992,37.2385161 C27.99248,36.6335806 26.16544,35.9861935 24.50256,35.6147419 L24.50256,41.0515806 C24.90384,41.1910645 25.3492,41.3184194 25.79152,41.4912581 C28.602,42.5116129 32.326,44.1308387 32.326,48.5200323 C32.326,52.4725806 29.24344,55.1773548 24.50408,55.4836129 L24.50408,58.5219355 L20.9412,58.5219355 L20.9412,58.5204194 Z M20.9412,39.9417742 L20.9412,35.4419032 C19.6568,35.6829677 18.67488,36.3894839 18.67488,37.6372581 C18.67488,38.7864839 19.54888,39.4323548 20.9412,39.9417742 L20.9412,39.9417742 Z M24.50256,46.4292903 L24.50256,51.2596774 C25.8888,50.995871 27.00904,50.243871 27.00904,48.8960323 C27.00904,47.7013226 26.02256,47.0281613 24.50256,46.4292903 L24.50256,46.4292903 Z" id="Shape"></path>
                        <path d="M113.64448,51.0277097 L113.64448,45.2770323 L112.21872,44.769129 C109.44624,43.7518065 106.05512,42.1068065 106.05512,37.976871 C106.05512,34.1971613 108.86712,31.4605484 113.64296,31.1558065 L113.64296,28.0780645 L117.2028,28.0780645 L117.2028,31.3286452 C119.80656,31.7273871 122.37992,32.6067419 124.25104,33.5558387 L121.98016,37.2385161 C120.6912,36.6335806 118.86264,35.9861935 117.2028,35.6147419 L117.2028,41.0515806 C117.60408,41.1910645 118.0464,41.3184194 118.49176,41.4912581 C121.30072,42.5116129 125.02624,44.1308387 125.02624,48.5200323 C125.02624,52.4725806 121.94216,55.1773548 117.20432,55.4836129 L117.20432,58.5219355 L113.64448,58.5219355 L113.64448,55.3138065 C110.39016,54.8438065 107.37752,53.5247742 105.51552,52.3406774 L107.78032,48.7247097 C109.24104,49.5722258 111.54232,50.5137419 113.64448,51.0277097 L113.64448,51.0277097 Z M113.64448,35.4419032 C112.35856,35.6829677 111.3736,36.3894839 111.3736,37.6372581 C111.3736,38.7864839 112.25216,39.433871 113.64448,39.9417742 L113.64448,35.4419032 L113.64448,35.4419032 Z M117.20432,51.2581613 C118.58752,50.9943548 119.70928,50.2423548 119.70928,48.8945161 C119.70928,47.7013226 118.72432,47.0281613 117.20432,46.4277742 L117.20432,51.2581613 L117.20432,51.2581613 Z" id="Shape"></path>
                        <path d="M120.04216,20.6490323 L125.57952,20.6490323 C132.81776,20.6687419 132.81776,9.47667742 125.5856,9.47667742 L122.20968,9.47667742 L125.78928,0.454193548 L104.39984,0.454193548 L107.97944,9.47667742 L29.86056,9.47667742 L33.44168,0.454193548 L12.05224,0.454193548 L15.63336,9.47667742 L12.25592,9.47667742 C5.02072,9.47667742 5.02072,20.6687419 12.26048,20.6490323 L17.79784,20.6490323 C7.37368,23.0445161 -0.43152,32.3596129 -0.43152,43.475871 C-0.43152,56.4054194 10.11272,66.9182581 23.07072,66.9182581 C36.03176,66.9182581 46.57448,56.4039032 46.57448,43.475871 C46.57448,32.3596129 38.76928,23.0445161 28.3436,20.6490323 L52.73656,20.7127097 L52.7016,117.552419 C52.7016,121.265419 55.72488,124.285548 59.4504,124.285548 C63.182,124.285548 66.20072,121.265419 66.20072,117.552419 L66.18096,66.0055484 L71.78368,66.0055484 L71.78368,117.552419 C71.78368,121.265419 74.80848,124.285548 78.54616,124.285548 C82.26864,124.285548 85.29344,121.265419 85.29344,117.552419 L85.23112,20.7127097 L109.49488,20.6490323 C99.0692,23.0445161 91.26704,32.3596129 91.26704,43.475871 C91.26704,56.4054194 101.80976,66.9182581 114.76776,66.9182581 C127.7288,66.9182581 138.27152,56.4039032 138.27152,43.475871 C138.27304,32.3596129 130.46784,23.0445161 120.04216,20.6490323 L120.04216,20.6490323 Z M27.614,4.40674194 L25.61216,9.46606452 L19.91976,9.47667742 L17.87992,4.40674194 L27.614,4.40674194 L27.614,4.40674194 Z M42.36408,43.475871 C42.36408,54.0872581 33.7092,62.7216129 23.07072,62.7216129 C12.43224,62.7216129 3.77888,54.0872581 3.77888,43.475871 C3.77888,32.8644839 12.43376,24.2331613 23.07072,24.2331613 C33.7092,24.2316452 42.36408,32.8644839 42.36408,43.475871 L42.36408,43.475871 Z M119.9616,4.40674194 L117.91872,9.47667742 L112.23088,9.46606452 L110.22752,4.40674194 L119.9616,4.40674194 L119.9616,4.40674194 Z M114.76928,62.7216129 C104.13232,62.7216129 95.47896,54.0872581 95.47896,43.475871 C95.47896,32.8644839 104.13232,24.2331613 114.76928,24.2331613 C125.40624,24.2331613 134.06264,32.866 134.06264,43.475871 C134.06264,54.0872581 125.40624,62.7216129 114.76928,62.7216129 L114.76928,62.7216129 Z" id="Shape"></path>
                    </g>
                </g>
            </g>
        </g>
    </g>
</svg>