<?xml version="1.0" encoding="UTF-8" standalone="no"?>
<svg width="695px" height="138px" viewBox="0 0 695 138" version="1.1" xmlns="http://www.w3.org/2000/svg" xmlns:xlink="http://www.w3.org/1999/xlink" xmlns:sketch="http://www.bohemiancoding.com/sketch/ns">
    <!-- Generator: Sketch 3.1.1 (8761) - http://www.bohemiancoding.com/sketch -->
    <title>prosperLogoBlue</title>
    <desc>Created with Sketch.</desc>
    <defs>
        <path id="path-1" d="M0,0.427 L694.188,0.427 L694.188,137.94 L0,137.94 L0,0.427 Z"></path>
        <path id="path-3" d="M-0.383,0.651 L-0.273,0.453 L-0.273,0.393 L-0.383,0.651"></path>
    </defs>
    <g id="Page-1" stroke="none" stroke-width="1" fill="none" fill-rule="evenodd" sketch:type="MSPage">
        <g id="prosperLogoBlue" sketch:type="MSLayerGroup">
            <g id="Prosper_Logo_ProsperGrey_EPS">
                <path d="M31.787,66.292 L14.698,66.292 L14.698,96.415 L31.787,96.415 C42.895,96.415 49.826,90.317 49.826,81.353 C49.826,71.436 42.779,66.292 31.787,66.292 L31.787,66.292 Z M31.31,109.675 L14.698,109.675 L14.698,136.563 L0,136.563 L0,52.914 L32.982,52.914 C52.46,52.914 64.771,63.91 64.771,80.995 C64.771,99.879 49.709,109.675 31.31,109.675 L31.31,109.675 Z" id="Fill-1" fill="#4AA9DB" sketch:type="MSShapeGroup"></path>
                <mask id="mask-2" sketch:name="Clip 3" fill="white">
                    <use xlink:href="#path-1"></use>
                </mask>
                <g id="Clip-3"></g>
                <path d="M118.897,66.292 L97.505,66.292 L97.505,94.383 L119.015,94.383 C129.526,94.383 136.219,88.879 136.219,80.278 C136.219,71.074 129.772,66.292 118.897,66.292 L118.897,66.292 Z M136.461,136.563 L115.913,107.402 L97.505,107.402 L97.505,136.563 L82.811,136.563 L82.811,52.914 L120.088,52.914 C139.328,52.914 151.156,63.074 151.156,79.446 C151.156,93.307 142.915,101.669 131.205,104.899 L153.792,136.563 L136.461,136.563 L136.461,136.563 Z" id="Fill-2" fill="#4AA9DB" sketch:type="MSShapeGroup"></path>
                <path d="M212.1,64.986 C195.488,64.986 183.902,78.249 183.902,94.616 C183.902,110.994 195.73,124.497 212.34,124.497 C228.948,124.497 240.538,111.235 240.538,94.86 C240.538,78.489 228.706,64.986 212.1,64.986 L212.1,64.986 Z M212.1,138 C186.407,138 168.482,118.519 168.482,94.86 C168.482,71.202 186.648,51.483 212.34,51.483 C238.028,51.483 255.948,70.959 255.948,94.616 C255.948,118.28 237.791,138 212.1,138 L212.1,138 Z" id="Fill-4" fill="#4AA9DB" sketch:type="MSShapeGroup"></path>
                <path d="M308.425,88.048 C326.113,92.353 335.307,98.681 335.307,112.665 C335.307,128.441 323.006,137.76 305.437,137.76 C292.654,137.76 280.579,133.342 270.54,124.38 L279.383,113.867 C287.394,120.797 295.392,124.74 305.792,124.74 C314.872,124.74 320.61,120.552 320.61,114.102 C320.61,107.998 317.269,104.781 301.729,101.195 C283.925,96.9 273.894,91.636 273.894,76.093 C273.894,61.522 285.837,51.727 302.452,51.727 C314.636,51.727 324.314,55.427 332.803,62.232 L324.911,73.346 C317.383,67.736 309.857,64.745 302.205,64.745 C293.608,64.745 288.583,69.163 288.583,74.785 C288.583,81.353 292.408,84.221 308.425,88.048" id="Fill-6" fill="#4AA9DB" sketch:type="MSShapeGroup"></path>
                <path d="M387.411,66.292 L370.321,66.292 L370.321,96.415 L387.411,96.415 C398.518,96.415 405.45,90.317 405.45,81.353 C405.45,71.436 398.396,66.292 387.411,66.292 L387.411,66.292 Z M386.927,109.675 L370.321,109.675 L370.321,136.563 L355.624,136.563 L355.624,52.914 L388.604,52.914 C408.084,52.914 420.385,63.91 420.385,80.995 C420.385,99.879 405.334,109.675 386.927,109.675 L386.927,109.675 Z" id="Fill-7" fill="#4AA9DB" sketch:type="MSShapeGroup"></path>
                <path d="M500.444,66.065 L453.129,66.065 L453.129,87.804 L495.069,87.804 L495.069,100.954 L453.129,100.954 L453.129,123.421 L501.043,123.421 L501.043,136.563 L438.429,136.563 L438.429,52.914 L500.444,52.914 L500.444,66.065" id="Fill-8" fill="#4AA9DB" sketch:type="MSShapeGroup"></path>
                <path d="M557.57,66.292 L536.178,66.292 L536.178,94.383 L557.688,94.383 C568.203,94.383 574.894,88.879 574.894,80.278 C574.894,71.074 568.439,66.292 557.57,66.292 L557.57,66.292 Z M575.13,136.563 L554.576,107.402 L536.178,107.402 L536.178,136.563 L521.479,136.563 L521.479,52.914 L558.76,52.914 C577.996,52.914 589.828,63.074 589.828,79.446 C589.828,93.307 581.582,101.669 569.874,104.899 L592.458,136.563 L575.13,136.563 L575.13,136.563 Z" id="Fill-9" fill="#4AA9DB" sketch:type="MSShapeGroup"></path>
                <g id="Group-12" transform="translate(611.000000, 109.000000)">
                    <mask id="mask-4" sketch:name="Clip 11" fill="white">
                        <use xlink:href="#path-3"></use>
                    </mask>
                    <g id="Clip-11"></g>
                    <path d="M-0.383,0.651 L-0.273,0.453 L-0.273,0.393 L-0.383,0.651" id="Fill-10" fill="#4AA9DB" sketch:type="MSShapeGroup" mask="url(#mask-4)"></path>
                </g>
                <path d="M628.675,16.766 L654.795,16.766 C668.074,16.766 675.953,22.606 675.953,33.839 C675.953,44.338 667.781,51.065 654.936,51.065 L628.675,51.065 L628.675,16.766 L628.675,16.766 Z M694.188,32.821 C694.188,12.825 679.746,0.427 656.256,0.427 L610.727,0.427 L610.727,109.393 L610.749,109.333 L610.727,109.453 L682.013,58.328 L681.725,58.328 C689.363,52.894 694.188,44.448 694.188,32.821 L694.188,32.821 Z" id="Fill-13" fill="#4AA9DB" sketch:type="MSShapeGroup"></path>
                <path d="M600.324,129.09 L601.747,129.09 C602.95,129.09 604.052,129.034 604.052,127.656 C604.052,126.498 603.049,126.317 602.13,126.317 L600.324,126.317 L600.324,129.09 L600.324,129.09 Z M598.963,125.201 L602.351,125.201 C604.436,125.201 605.413,126.024 605.413,127.698 C605.413,129.302 604.403,129.956 603.122,130.107 L605.615,133.957 L604.147,133.957 L601.767,130.206 L600.324,130.206 L600.324,133.957 L598.963,133.957 L598.963,125.201 L598.963,125.201 Z M601.892,135.982 C605.344,135.982 608.037,133.223 608.037,129.547 C608.037,125.974 605.344,123.204 601.892,123.204 C598.363,123.204 595.693,125.974 595.693,129.547 C595.693,133.223 598.363,135.982 601.892,135.982 L601.892,135.982 Z M601.892,122.104 C605.972,122.104 609.408,125.326 609.408,129.547 C609.408,133.854 605.972,137.097 601.892,137.097 C597.777,137.097 594.331,133.854 594.331,129.547 C594.331,125.326 597.777,122.104 601.892,122.104 L601.892,122.104 Z" id="Fill-14" fill="#4AA9DB" sketch:type="MSShapeGroup"></path>
            </g>
        </g>
    </g>
</svg>