<?xml version="1.0" encoding="UTF-8" standalone="no"?>
<svg width="96px" height="104px" viewBox="0 0 96 104" version="1.1" xmlns="http://www.w3.org/2000/svg" xmlns:xlink="http://www.w3.org/1999/xlink" xmlns:sketch="http://www.bohemiancoding.com/sketch/ns">
    <!-- Generator: Sketch 3.1.1 (8761) - http://www.bohemiancoding.com/sketch -->
    <title>telephone</title>
    <desc>Created with Sketch.</desc>
    <defs></defs>
    <g id="Page-1" stroke="none" stroke-width="1" fill="none" fill-rule="evenodd" sketch:type="MSPage">
        <g id="telephone" sketch:type="MSLayerGroup" transform="translate(48.795009, 51.523961) scale(-1, 1) rotate(-100.000000) translate(-48.795009, -51.523961) translate(-7.956711, 10.987019)" fill="#A7C9B5">
            <path d="M105.595815,6.0276482 C103.363678,3.44512796 96.8821884,-0.910333966 90.0927014,-0.182066793 C83.306599,0.54620038 72.9937542,2.1565193 61.2796891,7.95260682 C49.5673164,13.7451591 36.7363368,19.9937621 26.0562639,28.5862542 C15.3744988,37.1822815 8.59685788,44.8803484 6.35795179,47.5158978 C4.13427634,50.1567501 0.629533688,53.1794124 0.609226149,62.8395583 C0.592303201,72.4926336 9.38715958,81.0126524 9.38715958,81.0126524 C11.4229903,82.3648961 13.1795924,80.4699873 13.1795924,80.4699873 C13.1795924,80.4699873 32.1485254,63.0693513 34.3840469,60.912832 C36.6161839,58.759848 35.1963485,56.5980258 35.1963485,56.5980258 C35.1963485,56.5980258 32.2280633,52.9054284 29.9840803,50.9963785 C27.7367127,49.0873286 28.0294798,47.9666456 28.7977816,45.7146739 C29.5677758,43.4644697 31.7119134,37.9688808 43.2821333,29.8907716 C54.8557379,21.8055919 66.3125741,19.4652381 67.3973351,19.2937772 C68.4905575,19.1258515 73.8635937,18.8995937 75.4661969,20.1245674 C77.0772617,21.354844 77.0451081,24.0504931 77.0451081,24.0504931 C77.0451081,24.0504931 78.5986347,29.1183134 79.1029386,30.98494 C79.6140116,32.8497989 82.5078359,32.5563709 82.5078359,32.5563709 L110.836852,22.9527894 C110.836852,22.9527894 112.393763,22.3252777 112.209303,19.7233134 C112.009612,17.1213491 107.834721,8.61370372 105.595815,6.0276482 L105.595815,6.0276482 Z M7.00271613,73.1696392 L17.7910959,64.8723428 C17.7894036,64.8705752 11.7005267,72.402484 7.00271613,73.1696392 L7.00271613,73.1696392 Z M100.342931,18.1660236 C96.1003482,20.4674893 77.9437166,25.2471845 77.9437166,25.2471845 C93.3808303,17.4819474 104.588899,15.8663256 100.342931,18.1660236 L100.342931,18.1660236 Z" id="Shape" sketch:type="MSShapeGroup"></path>
        </g>
    </g>
</svg>