<?xml version="1.0" encoding="UTF-8" standalone="no"?>
<svg width="183px" height="184px" viewBox="0 0 183 184" version="1.1" xmlns="http://www.w3.org/2000/svg" xmlns:xlink="http://www.w3.org/1999/xlink" xmlns:sketch="http://www.bohemiancoding.com/sketch/ns">
    <!-- Generator: Sketch 3.1.1 (8761) - http://www.bohemiancoding.com/sketch -->
    <title>Rectangle 167 + May 2 + Group 4</title>
    <desc>Created with Sketch.</desc>
    <defs></defs>
    <g id="Page-1" stroke="none" stroke-width="1" fill="none" fill-rule="evenodd" sketch:type="MSPage">
        <g id="Rectangle-167-+-May-2-+-Group-4" sketch:type="MSLayerGroup">
            <rect id="Rectangle-167" stroke="#F49F84" stroke-width="2.75" fill="#F49F84" sketch:type="MSShapeGroup" x="0" y="0.077045778" width="183" height="183" rx="16.5"></rect>
            <text id="May-2" sketch:type="MSTextLayer" font-family="Neutra Text" font-size="27.9817481" font-weight="313" fill="#FFFFFF">
                <tspan x="66.116129" y="40.1677419">May</tspan>
            </text>
            <g id="Group-2" transform="translate(11.806452, 50.767742)" sketch:type="MSShapeGroup">
                <rect id="Rectangle-167" fill="#E88869" x="0" y="23.6129032" width="17.5471081" height="17.5471081"></rect>
                <rect id="Rectangle-168" fill="#E88869" x="23.7402051" y="23.6129032" width="17.5471081" height="17.5471081"></rect>
                <rect id="Rectangle-169" fill="#E88869" x="47.4804102" y="23.6129032" width="17.5471081" height="17.5471081"></rect>
                <rect id="Rectangle-170" fill="#E88869" x="71.2206153" y="23.6129032" width="17.5471081" height="17.5471081"></rect>
                <rect id="Rectangle-171" fill="#E88869" x="94.9608204" y="23.6129032" width="17.5471081" height="17.5471081"></rect>
                <rect id="Rectangle-172" fill="#E88869" x="118.701025" y="23.6129032" width="17.5471081" height="17.5471081"></rect>
                <rect id="Rectangle-173" fill="#E88869" x="142.441231" y="23.6129032" width="17.5471081" height="17.5471081"></rect>
                <rect id="Rectangle-180" fill="#E88869" x="0" y="47.2258065" width="17.5471081" height="17.5471081"></rect>
                <rect id="Rectangle-174" fill="#E88869" x="23.7402051" y="47.2258065" width="17.5471081" height="17.5471081"></rect>
                <rect id="Rectangle-175" fill="#E88869" x="47.4804102" y="47.2258065" width="17.5471081" height="17.5471081"></rect>
                <rect id="Rectangle-176" fill="#E88869" x="71.2206153" y="47.2258065" width="17.5471081" height="17.5471081"></rect>
                <rect id="Rectangle-177" fill="#E88869" x="94.9608204" y="47.2258065" width="17.5471081" height="17.5471081"></rect>
                <rect id="Rectangle-178" fill="#FFFFFF" x="118.701025" y="47.2258065" width="17.5471081" height="17.5471081"></rect>
                <rect id="Rectangle-179" fill="#E88869" x="142.441231" y="47.2258065" width="17.5471081" height="17.5471081"></rect>
                <rect id="Rectangle-187" fill="#E88869" x="0" y="70.8387097" width="17.5471081" height="17.5471081"></rect>
                <rect id="Rectangle-181" fill="#E88869" x="23.7402051" y="70.8387097" width="17.5471081" height="17.5471081"></rect>
                <rect id="Rectangle-182" fill="#E88869" x="47.4804102" y="70.8387097" width="17.5471081" height="17.5471081"></rect>
                <rect id="Rectangle-183" fill="#E88869" x="71.2206153" y="70.8387097" width="17.5471081" height="17.5471081"></rect>
                <rect id="Rectangle-184" fill="#E88869" x="94.9608204" y="70.8387097" width="17.5471081" height="17.5471081"></rect>
                <rect id="Rectangle-185" fill="#E88869" x="118.701025" y="70.8387097" width="17.5471081" height="17.5471081"></rect>
                <rect id="Rectangle-186" fill="#E88869" x="142.441231" y="70.8387097" width="17.5471081" height="17.5471081"></rect>
                <rect id="Rectangle-194" fill="#E88869" x="0" y="93.2709677" width="17.5471081" height="17.5471081"></rect>
                <rect id="Rectangle-188" fill="#E88869" x="23.7402051" y="93.2709677" width="17.5471081" height="17.5471081"></rect>
                <rect id="Rectangle-189" fill="#E88869" x="47.4804102" y="93.2709677" width="17.5471081" height="17.5471081"></rect>
                <rect id="Rectangle-190" fill="#E88869" x="71.2206153" y="93.2709677" width="17.5471081" height="17.5471081"></rect>
                <rect id="Rectangle-191" fill="#E88869" x="94.9608204" y="93.2709677" width="17.5471081" height="17.5471081"></rect>
                <rect id="Rectangle-192" fill="#E88869" x="118.701025" y="93.2709677" width="17.5471081" height="17.5471081"></rect>
                <rect id="Rectangle-193" fill="#E88869" x="142.441231" y="93.2709677" width="17.5471081" height="17.5471081"></rect>
                <rect id="Rectangle-196" fill="#E88869" x="118.701025" y="0" width="17.5471081" height="17.5471081"></rect>
                <rect id="Rectangle-195" fill="#E88869" x="142.441231" y="0" width="17.5471081" height="17.5471081"></rect>
            </g>
        </g>
    </g>
</svg>