<?xml version="1.0" encoding="UTF-8" standalone="no"?>
<svg width="75px" height="76px" viewBox="0 0 75 76" version="1.1" xmlns="http://www.w3.org/2000/svg" xmlns:xlink="http://www.w3.org/1999/xlink" xmlns:sketch="http://www.bohemiancoding.com/sketch/ns">
    <!-- Generator: Sketch 3.1.1 (8761) - http://www.bohemiancoding.com/sketch -->
    <title>iconLinkedIn 2</title>
    <desc>Created with Sketch.</desc>
    <defs></defs>
    <g id="Page-1" stroke="none" stroke-width="1" fill="none" fill-rule="evenodd" sketch:type="MSPage">
        <g id="iconLinkedIn-2" sketch:type="MSLayerGroup" transform="translate(1.000000, 1.000000)" fill="#9D9D9D">
            <path d="M8.4538837,-0.311762568 C13.3303067,-0.311762568 17.2940072,3.71977826 17.2940072,8.68160017 C17.2940072,13.648749 13.3303067,17.6802899 8.4538837,17.6802899 C3.56460548,17.6802899 -0.387668209,13.648749 -0.387668209,8.68160017 C-0.387668209,3.71977826 3.56460548,-0.311762568 8.4538837,-0.311762568 Z M0.823105431,24.5050953 L16.0832336,24.5050953 L16.0832336,74.4230769 L0.823105431,74.4230769 L0.823105431,24.5050953 Z M25.6499166,24.5050953 L40.2834706,24.5050953 L40.2834706,31.3231209 L40.4915351,31.3231209 C42.5283772,27.3995721 47.5052616,23.2605235 54.9260708,23.2605235 C70.3609351,23.2605235 73.2119428,33.5967646 73.2119428,47.0424981 L73.2119428,74.4230769 L57.9760968,74.4230769 L57.9760968,50.1490848 C57.9760968,44.3567413 57.8642085,36.9111028 50.0472673,36.9111028 C42.1098676,36.9111028 40.899094,43.2177402 40.899094,49.7287392 L40.899094,74.4230769 L25.6499166,74.4230769 L25.6499166,24.5050953" id="Oval-15" sketch:type="MSShapeGroup"></path>
        </g>
    </g>
</svg>