<?xml version="1.0" encoding="UTF-8" standalone="no"?>
<svg width="80px" height="67px" viewBox="0 0 80 67" version="1.1" xmlns="http://www.w3.org/2000/svg" xmlns:xlink="http://www.w3.org/1999/xlink" xmlns:sketch="http://www.bohemiancoding.com/sketch/ns">
    <!-- Generator: Sketch 3.1.1 (8761) - http://www.bohemiancoding.com/sketch -->
    <title>iconTwitter 2</title>
    <desc>Created with Sketch.</desc>
    <defs></defs>
    <g id="Page-1" stroke="none" stroke-width="1" fill="none" fill-rule="evenodd" sketch:type="MSPage">
        <g id="iconTwitter-2" sketch:type="MSLayerGroup" transform="translate(0.000000, 1.000000)" fill="#9D9D9D">
            <path d="M25.0016023,65.8571921 C15.7910213,65.8571921 7.2178387,63.1027596 0,58.3818075 C1.27595988,58.5354743 2.57431013,58.6140876 3.89068898,58.6140876 C11.5319091,58.6140876 18.5645184,55.953991 24.1464067,51.4914246 C17.009406,51.3570404 10.9861076,46.5464988 8.91078274,39.9358606 C9.90642692,40.130169 10.9282416,40.2342946 11.9791348,40.2342946 C13.4667854,40.2342946 14.9076197,40.0310866 16.2763397,39.6507761 C8.81482405,38.1224146 3.19309833,31.397268 3.19309833,23.3353984 C3.19309833,23.2653881 3.19309833,23.1956744 3.19426147,23.1262573 C5.39346033,24.3725009 7.90815975,25.120959 10.581918,25.2072853 C6.20561984,22.2235392 3.32598659,17.130583 3.32598659,11.3579924 C3.32598659,8.30868575 4.13029494,5.45042428 5.53419975,2.99294239 C13.5784464,13.0595999 25.5962554,19.6838841 39.1514391,20.3777578 C38.8734496,19.1599931 38.72893,17.8900172 38.72893,16.5859262 C38.72893,7.39706795 46.0316776,-0.0528044153 55.0392914,-0.0528044153 C59.7302178,-0.0528044153 63.9689751,1.96800276 66.9442763,5.20182822 C70.6593318,4.45544671 74.1499021,3.07066575 77.3011275,1.16407037 C76.0833244,5.04934805 73.4973829,8.31016902 70.1298143,10.3695412 C73.4290487,9.96727837 76.572423,9.07286651 79.4974186,7.74949293 C77.3107234,11.0862573 74.5453682,14.0169024 71.3589579,16.3628424 C71.3903626,17.0762953 71.4060649,17.7939013 71.4060649,18.5153639 C71.4060649,40.5030631 55.0011987,65.8571921 25.0016023,65.8571921 Z" id="Oval-13" sketch:type="MSShapeGroup"></path>
        </g>
    </g>
</svg>