<?xml version="1.0" encoding="UTF-8" standalone="no"?>
<svg width="72px" height="70px" viewBox="0 0 72 70" version="1.1" xmlns="http://www.w3.org/2000/svg" xmlns:xlink="http://www.w3.org/1999/xlink" xmlns:sketch="http://www.bohemiancoding.com/sketch/ns">
    <!-- Generator: Sketch 3.1.1 (8761) - http://www.bohemiancoding.com/sketch -->
    <title>help 2</title>
    <desc>Created with Sketch.</desc>
    <defs></defs>
    <g id="Page-1" stroke="none" stroke-width="1" fill="none" fill-rule="evenodd" sketch:type="MSPage">
        <g id="help-2" sketch:type="MSLayerGroup" transform="translate(2.000000, 2.000000)">
            <ellipse id="Oval-30" stroke="#979797" stroke-width="4" sketch:type="MSShapeGroup" cx="34" cy="33.0077377" rx="34" ry="32.8852459"></ellipse>
            <path d="M32.9401467,52.3659931 C32.2081568,52.3659931 31.5633182,52.1045721 31.0056116,51.5817221 C30.4479049,51.0588722 30.1690558,50.3966055 30.1690558,49.5949022 C30.1690558,48.793199 30.4479049,48.1222183 31.0056116,47.58194 C31.5633182,47.0416617 32.2081568,46.7715266 32.9401467,46.7715266 C33.6721367,46.7715266 34.3169753,47.0416617 34.8746819,47.58194 C35.4323885,48.1222183 35.7112376,48.793199 35.7112376,49.5949022 C35.7112376,50.3966055 35.4323885,51.0588722 34.8746819,51.5817221 C34.3169753,52.1045721 33.6721367,52.3659931 32.9401467,52.3659931 L32.9401467,52.3659931 Z M31.2670352,33.0206416 L32.9924315,33.0206416 C34.1427014,33.0206416 35.1709575,32.8376468 36.0772308,32.4716519 C36.983504,32.1056569 37.7503391,31.6089569 38.377759,30.981537 C39.005179,30.354117 39.4844509,29.613424 39.8155892,28.7594358 C40.1467275,27.9054475 40.3122942,26.9904738 40.3122942,26.0144872 C40.3122942,23.9230874 39.7110258,22.2848488 38.5084709,21.0997222 C37.305916,19.9145957 35.7286756,19.3220413 33.7767025,19.3220413 C31.9990126,19.3220413 30.5611968,19.6967448 29.4632119,20.4461631 C28.365227,21.1955813 27.4153972,22.354548 26.6136939,23.9230979 L23.5811793,22.3545559 C24.4525959,20.263156 25.7684152,18.6859157 27.5286768,17.6227874 C29.2889383,16.5596592 31.3715927,16.028103 33.7767025,16.028103 C35.3103957,16.028103 36.7133553,16.272096 37.9856235,16.7600893 C39.2578918,17.2480826 40.3471462,17.9277774 41.2534194,18.7991939 C42.1596927,19.6706105 42.8568155,20.7162948 43.3448088,21.936278 C43.8328021,23.1562612 44.076795,24.5156507 44.076795,26.0144872 C44.076795,27.4087538 43.8502301,28.6897169 43.3970935,29.8574152 C42.9439569,31.0251134 42.3078323,32.0359415 41.4887007,32.8899297 C40.6695691,33.743918 39.6848831,34.4323268 38.5346133,34.9551767 C37.3843434,35.4780267 36.1120942,35.791732 34.7178277,35.8963019 L34.7178277,42.2227548 L31.2670352,42.2227548 L31.2670352,33.0206416 Z" id="?-3" fill="#979797" sketch:type="MSShapeGroup"></path>
        </g>
    </g>
</svg>