<?xml version="1.0" encoding="UTF-8" standalone="no"?>
<svg width="130px" height="133px" viewBox="0 0 130 133" version="1.1" xmlns="http://www.w3.org/2000/svg" xmlns:xlink="http://www.w3.org/1999/xlink" xmlns:sketch="http://www.bohemiancoding.com/sketch/ns">
    <!-- Generator: Sketch 3.1.1 (8761) - http://www.bohemiancoding.com/sketch -->
    <title>Group</title>
    <desc>Created with Sketch.</desc>
    <defs></defs>
    <g id="HomepageAlts" stroke="none" stroke-width="1" fill="none" fill-rule="evenodd" sketch:type="MSPage">
        <g id="Home-Extra-Large" sketch:type="MSArtboardGroup" transform="translate(-1079.000000, -1591.000000)">
            <g id="icon_75918" sketch:type="MSLayerGroup" transform="translate(1080.000000, 1591.000000)">
                <g id="Group" sketch:type="MSShapeGroup">
                    <path d="M48.0372533,69.9326667 C51.20896,72.36625 54.7705123,73.85775 58.5326024,73.85775 C62.2722323,73.85775 65.8113243,72.38525 68.9701966,69.9801667 C74.3831144,65.8555833 78.6698115,58.9981667 80.9110226,52.1138333 C81.0923088,52.2848333 81.2992639,52.3925 81.522262,52.4305 C81.9169205,52.4985833 82.3372478,52.34025 82.7431364,52.0014167 C83.7586601,51.1511667 84.7180332,49.1593333 85.1544036,46.7415833 C85.7271397,43.5891667 85.2105542,40.82625 84.0105357,40.2705 C83.922299,40.2293333 83.8324581,40.2008333 83.7378042,40.1834167 L81.0056765,42.7800833 L47.3794891,25.6975 C36.3868061,24.6936667 34.6413246,39.1875 34.5081675,40.4810833 C34.500146,40.54125 34.4985417,40.5729167 34.4985417,40.5745 L34.4985417,40.5729167 C34.1086961,40.261 33.710829,40.1169167 33.3274006,40.1818333 C33.1605531,40.20875 33.0049357,40.28 32.8589442,40.3813333 C31.7985,41.135 31.3717554,43.7649167 31.9091969,46.74 C32.3198984,49.0025833 33.1830133,50.8899167 34.1279477,51.8209167 C34.5947998,52.28325 35.0841122,52.51125 35.5445471,52.4305 C35.7675452,52.3909167 35.972896,52.2816667 36.1557865,52.1138333 C38.3873717,58.97125 42.6564216,65.8049167 48.0372533,69.9326667 L48.0372533,69.9326667 Z" id="Shape"></path>
                    <path d="M74.50825,71.8453333 C74.4873941,71.8374167 74.4729553,71.8279167 74.4537037,71.8184167 C71.7087416,74.4863333 68.6637748,76.6000833 65.4102486,77.8730833 C63.2043322,78.736 60.8973448,79.21575 58.5326024,79.21575 C56.16786,79.21575 53.8640812,78.736 51.6565605,77.8730833 C48.3741569,76.5858333 45.3019169,74.4499167 42.5377032,71.744 L42.5344946,71.744 C42.5328903,75.0705833 39.9611928,76.9674167 38.2108984,77.8730833 C38.0039434,77.9791667 37.8082184,78.071 37.6285365,78.15175 C37.1937704,78.3496667 36.8600754,78.4668333 36.7156882,78.5143333 C36.7156882,78.5143333 36.7156882,78.5143333 36.7156882,78.5175 C36.8167593,79.36775 37.2017919,80.19425 37.8178442,80.97325 C40.7120065,84.6228333 48.8345918,89.889 58.4122797,89.889 C67.986759,89.889 76.1109485,84.6228333 79.0019022,80.97325 C79.6211631,80.19425 80.0045915,79.3645833 80.1056626,78.5206667 C80.1120798,78.489 80.1120798,78.4715833 80.1152884,78.4430833 C78.9329172,78.0124167 74.577235,76.133 74.50825,71.8453333 L74.50825,71.8453333 Z" id="Shape"></path>
                    <path d="M106.154728,85.519 C101.184597,81.0001667 96.5080547,80.5900833 94.9935929,80.2433333 C94.687171,80.1720833 94.3727277,80.1055833 94.0598886,80.0485833 C86.0303529,72.7225 91.5122557,42.14675 91.5122557,42.14675 C91.5122557,-4.46183333 59.5705863,0.1235 59.5705863,0.1235 C59.1791364,0.101333333 58.7941038,0.0870833333 58.4106754,0.076 C58.027247,0.0870833333 57.6438186,0.1045 57.2523687,0.125083333 C57.2523687,0.125083333 25.309095,-4.46025 25.309095,42.14675 C25.309095,42.14675 30.7909978,72.7225 22.7598578,80.0485833 C22.4454145,80.1071667 22.1341797,80.17525 21.8293622,80.2465 C19.1822625,80.8529167 6.88528132,81.6319167 0.229028867,104.227667 C-0.670985022,107.296167 -0.354937364,110.633833 1.11299973,113.366667 C6.56442075,123.536417 35.236521,126.671417 58.4106754,126.666667 C67.1300613,126.669833 76.6259297,126.2265 85.3709845,125.130833 C82.5361814,121.0585 80.870915,116.1375 80.870915,110.833333 C80.870915,96.9934167 92.1796457,85.7264167 106.154728,85.519 L106.154728,85.519 Z M35.5445471,52.4289167 C35.0841122,52.5096667 34.5947998,52.2816667 34.1279477,51.8193333 C33.1830133,50.8883333 32.3198984,49.001 31.9091969,46.7384167 C31.3717554,43.7633333 31.7985,41.1334167 32.8589442,40.37975 C33.0049357,40.2784167 33.1605531,40.2071667 33.3274006,40.18025 C33.710829,40.1153333 34.1086961,40.2594167 34.4985417,40.5713333 L34.4985417,40.5729167 C34.4985417,40.5713333 34.500146,40.5396667 34.5081675,40.4795 C34.6413246,39.1859167 36.3868061,24.6920833 47.3794891,25.6959167 L81.0056765,42.7785 L83.7378042,40.1818333 C83.8324581,40.19925 83.922299,40.22775 84.0105357,40.2689167 C85.2105542,40.8246667 85.7271397,43.5875833 85.1544036,46.74 C84.7196375,49.15775 83.7586601,51.1495833 82.7431364,51.9998333 C82.3372478,52.3386667 81.9169205,52.497 81.522262,52.4289167 C81.2992639,52.3909167 81.0923088,52.28325 80.9110226,52.11225 C78.6698115,58.9965833 74.3831144,65.854 68.9701966,69.9785833 C65.8113243,72.38525 62.2722323,73.8561667 58.5326024,73.8561667 C54.7705123,73.8561667 51.20896,72.36625 48.0372533,69.9310833 C42.6564216,65.8033333 38.3873717,58.9696667 36.1557865,52.1106667 C35.972896,52.2800833 35.7675452,52.3893333 35.5445471,52.4289167 L35.5445471,52.4289167 Z M80.1056626,78.5206667 C80.0045915,79.3645833 79.6195588,80.19425 79.0019022,80.97325 C76.1109485,84.6228333 67.986759,89.889 58.4122797,89.889 C48.8345918,89.889 40.7120065,84.6228333 37.8178442,80.97325 C37.2017919,80.19425 36.8167593,79.36775 36.7156882,78.5175 L36.7156882,78.5143333 C36.8600754,78.4684167 37.1937704,78.3496667 37.6285365,78.15175 C37.8082184,78.071 38.0039434,77.98075 38.2108984,77.8730833 C39.9611928,76.9674167 42.5328903,75.069 42.5344946,71.744 L42.5377032,71.744 C45.3019169,74.4499167 48.3741569,76.5874167 51.6565605,77.8730833 C53.8640812,78.736 56.16786,79.21575 58.5326024,79.21575 C60.8989491,79.21575 63.2043322,78.736 65.4102486,77.8730833 C68.6621705,76.5985 71.7087416,74.48475 74.4537037,71.8184167 C74.4729553,71.8279167 74.4873941,71.8374167 74.50825,71.8453333 C74.577235,76.133 78.9329172,78.014 80.1152884,78.4430833 C80.1120798,78.4715833 80.1120798,78.489 80.1056626,78.5206667 L80.1056626,78.5206667 Z" id="Shape" fill="#979797"></path>
                    <path d="M106.53976,88.6666667 C94.1529382,88.6666667 84.0795207,98.61 84.0795207,110.833333 C84.0795207,123.056667 94.1529382,133 106.53976,133 C118.923374,133 129,123.056667 129,110.833333 C129,98.61 118.923374,88.6666667 106.53976,88.6666667 L106.53976,88.6666667 Z M107.980424,120.5265 L107.980424,123.7565 L104.837595,123.7565 L104.837595,120.748167 C102.687829,120.653167 100.600631,120.083167 99.3829654,119.3865 L100.345547,115.6815 C101.693161,116.409833 103.586239,117.074833 105.671833,117.074833 C107.502342,117.074833 108.752094,116.378167 108.752094,115.1115 C108.752094,113.908167 107.726944,113.148167 105.352576,112.3565 C101.917764,111.214917 99.5738775,109.631583 99.5738775,106.559917 C99.5738775,103.771667 101.563213,101.586667 104.998025,100.921667 L104.998025,97.9133333 L108.144063,97.9133333 L108.144063,100.7 C110.293829,100.795 111.737702,101.238333 112.796541,101.745 L111.866046,105.323333 C111.030204,104.975 109.554245,104.246667 107.244049,104.246667 C105.156851,104.246667 104.483044,105.133333 104.483044,106.02 C104.483044,107.065 105.60766,107.73 108.333371,108.744917 C112.153216,110.074917 113.694951,111.816583 113.694951,114.666583 C113.696555,117.484917 111.671925,119.893167 107.980424,120.5265 L107.980424,120.5265 Z" id="Shape" fill="#979797"></path>
                </g>
            </g>
        </g>
    </g>
</svg>