<?xml version="1.0" encoding="UTF-8" standalone="no"?>
<svg width="134px" height="175px" viewBox="0 0 134 175" version="1.1" xmlns="http://www.w3.org/2000/svg" xmlns:xlink="http://www.w3.org/1999/xlink" xmlns:sketch="http://www.bohemiancoding.com/sketch/ns">
    <!-- Generator: Sketch 3.1.1 (8761) - http://www.bohemiancoding.com/sketch -->
    <title>Prosper_Logo_ProsperGrey_EPS</title>
    <desc>Created with Sketch.</desc>
    <defs></defs>
    <g id="Page-1" stroke="none" stroke-width="1" fill="none" fill-rule="evenodd" sketch:type="MSPage">
        <g id="Icon-set" sketch:type="MSArtboardGroup" transform="translate(-902.000000, -166.000000)">
            <g id="prosperLogoBlue-4" sketch:type="MSLayerGroup" transform="translate(871.000000, 159.592000)">
                <g id="prosperLogoBlue-2" transform="translate(0.000000, 0.000000)" sketch:type="MSShapeGroup">
                    <g id="Prosper_Logo_ProsperGrey_EPS">
                        <path d="M60.1710334,32.8900023 L101.773444,32.8900023 C122.92346,32.8900023 135.472671,42.1916133 135.472671,60.0828798 C135.472671,76.8050739 122.456787,87.5194467 101.998021,87.5194467 L60.1710334,87.5194467 L60.1710334,32.8900023 L60.1710334,32.8900023 Z M164.516314,58.4614688 C164.516314,26.6130076 141.51394,6.86619718 104.10044,6.86619718 L31.584507,6.86619718 L31.584507,180.420879 L31.6195474,180.325315 L31.584507,180.516444 L145.124685,99.087529 L144.665976,99.087529 C156.831336,90.4325711 164.516314,76.9802755 164.516314,58.4614688 L164.516314,58.4614688 Z" id="Fill-13" fill="#FFFFFF"></path>
                        <rect id="Rectangle-70" x="0" y="0" width="195" height="195"></rect>
                    </g>
                </g>
            </g>
        </g>
    </g>
</svg>